<svg width="98" height="98" viewBox="0 0 98 98" fill="none" xmlns="http://www.w3.org/2000/svg">
<path d="M15.3125 73.5L19.9062 81.1562H9.1875L4.59375 73.5H15.3125Z" fill="#966857"/>
<path d="M38.2812 73.5L33.6875 81.1562H22.9688L27.5625 73.5H38.2812Z" fill="#B2876D"/>
<path d="M22.9688 81.1562H33.6875V96.4688H19.9062V81.1562H22.9688Z" fill="#966857"/>
<path d="M19.9062 81.1562H9.1875V96.4688H19.9062V81.1562Z" fill="#B2876D"/>
<path d="M12.25 85.75V81.1562H9.1875V96.4688H19.9062V93.4062C17.8757 93.4062 15.9283 92.5996 14.4925 91.1638C13.0566 89.728 12.25 87.7806 12.25 85.75Z" fill="#A37862"/>
<path d="M54.6656 68.9062H49V78.0937H41.3438C42.8918 72.4823 43.8464 66.7239 44.1919 60.9131C44.8187 61.5426 45.5703 62.034 46.3983 62.3557C47.2264 62.6775 48.1126 62.8224 49 62.7812C49.8874 62.8224 50.7736 62.6775 51.6017 62.3557C52.4297 62.034 53.1813 61.5426 53.8081 60.9131C53.8847 62.23 54.1297 65.3078 54.6656 68.9062Z" fill="#B2876D"/>
<path d="M45.9375 78.0938H49V68.9062C48.1878 68.9062 47.4088 69.2289 46.8345 69.8032C46.2602 70.3776 45.9375 71.1565 45.9375 71.9688V78.0938Z" fill="#A37862"/>
<path d="M53.8081 60.9131C53.0036 61.728 51.9822 62.2951 50.8651 62.5469C50.9967 64.1302 51.228 66.3751 51.6031 68.9062H54.6656C54.1297 65.3078 53.8847 62.23 53.8081 60.9131Z" fill="#A37862"/>
<path d="M56.1509 54.6196C56.1089 56.9229 55.2825 59.143 53.8081 60.9131C53.1813 61.5426 52.4297 62.034 51.6017 62.3557C50.7736 62.6774 49.8874 62.8224 49 62.7812C48.1126 62.8224 47.2264 62.6774 46.3983 62.3557C45.5703 62.034 44.8187 61.5426 44.1919 60.9131C42.7175 59.143 41.891 56.9229 41.8491 54.6196C41.8491 54.6196 41.8491 62.7812 34.7134 62.7812C27.5778 62.7812 27.5625 54.6196 27.5625 54.6196C30.9152 51.8205 33.8448 48.5505 36.26 44.9115H36.3059C42.6453 44.9115 42.6453 37.7759 42.6453 37.7759C42.6453 37.7759 42.6453 44.9115 49 44.9115C55.3547 44.9115 55.3547 37.7759 55.3547 37.7759C55.3547 37.7759 55.3547 44.9115 61.6941 44.9115H61.74C64.1552 48.5505 67.0848 51.8205 70.4375 54.6196C70.4375 54.6196 70.4375 62.7812 63.2866 62.7812C56.1356 62.7812 56.1509 54.6196 56.1509 54.6196Z" fill="#74B580"/>
<path d="M63.2866 56.6562C56.1509 56.6562 56.1509 48.4946 56.1509 48.4946C56.1089 50.7979 55.2825 53.018 53.8081 54.7881C53.1813 55.4176 52.4297 55.909 51.6017 56.2307C50.7736 56.5524 49.8874 56.6974 49 56.6562C48.1126 56.6974 47.2264 56.5524 46.3983 56.2307C45.5703 55.909 44.8187 55.4176 44.1919 54.7881C42.7175 53.018 41.891 50.7979 41.8491 48.4946C41.8491 48.4946 41.8491 56.6562 34.7134 56.6562C33.549 56.7162 32.3909 56.4507 31.3688 55.8895C30.3468 55.3283 29.5012 54.4936 28.9268 53.4788C28.4675 53.8831 28.0173 54.2705 27.5625 54.6196C27.5625 54.6196 27.5625 62.7812 34.7134 62.7812C41.8644 62.7812 41.8491 54.6196 41.8491 54.6196C41.891 56.9229 42.7175 59.143 44.1919 60.9131C44.8187 61.5426 45.5703 62.034 46.3983 62.3557C47.2264 62.6774 48.1126 62.8224 49 62.7812C49.8874 62.8224 50.7736 62.6774 51.6017 62.3557C52.4297 62.034 53.1813 61.5426 53.8081 60.9131C55.2825 59.143 56.1089 56.9229 56.1509 54.6196C56.1509 54.6196 56.1509 62.7812 63.2866 62.7812C70.4222 62.7812 70.4375 54.6196 70.4375 54.6196C69.9781 54.2705 69.5279 53.8831 69.0732 53.4788C68.4988 54.4936 67.6532 55.3283 66.6312 55.8895C65.6091 56.4507 64.451 56.7162 63.2866 56.6562Z" fill="#65996D"/>
<path d="M93.4062 78.0938H84.2188C84.2188 78.0938 85.75 73.5 90.3438 73.5C90.3438 73.5 93.4062 73.5 93.4062 78.0938Z" fill="#FA732D"/>
<path d="M78.0938 73.5C82.6875 73.5 84.2188 78.0938 84.2188 78.0938H75.0312C75.0312 73.5 78.0938 73.5 78.0938 73.5Z" fill="#FA732D"/>
<path d="M71.9688 68.9062H65.8438C65.8438 68.9062 67.375 64.3125 70.4375 64.3125C70.4375 64.3125 71.9688 64.3125 71.9688 68.9062Z" fill="#FA732D"/>
<path d="M61.25 64.3125C64.3125 64.3125 65.8438 68.9062 65.8438 68.9062H59.7188C59.7188 64.3125 61.25 64.3125 61.25 64.3125Z" fill="#FA732D"/>
<path d="M96.4688 78.0938V87.2812H84.2188V78.0938H93.4062H96.4688Z" fill="#7C232A"/>
<path d="M84.2188 87.2812H71.9688V96.4688H84.2188V87.2812Z" fill="#7C232A"/>
<path d="M96.4688 87.2812H84.2188V96.4688H96.4688V87.2812Z" fill="#90262A"/>
<path d="M75.0312 78.0938H84.2188V87.2812H71.9688V81.1562V78.0938H73.5H75.0312Z" fill="#90262A"/>
<path d="M65.8438 81.1562H49V87.2812H65.8438V81.1562Z" fill="#AA3949"/>
<path d="M73.5 68.9062V78.0938H71.9688V81.1562H65.8438V68.9062H71.9688H73.5Z" fill="#AA3949"/>
<path d="M71.9688 81.1562H65.8438V87.2812H71.9688V81.1562Z" fill="#DC464F"/>
<path d="M71.9688 84.2188H65.8438V87.2812H71.9688V84.2188Z" fill="#AA3949"/>
<path d="M65.8438 84.2188H49V87.2812H65.8438V84.2188Z" fill="#90262A"/>
<path d="M65.8438 68.9062V81.1562H49V78.0938V68.9062H54.6656H59.7188H65.8438Z" fill="#DC464F"/>
<path d="M68.0487 37.7759C68.0487 37.7759 68.0487 44.8809 61.74 44.9115H61.6941C55.3547 44.9115 55.3547 37.7759 55.3547 37.7759C55.3547 37.7759 55.3547 44.9115 49 44.9115C42.6453 44.9115 42.6453 37.7759 42.6453 37.7759C42.6453 37.7759 42.6453 44.9115 36.3059 44.9115H36.26C29.9512 44.8809 29.9512 37.7759 29.9512 37.7759C33.8253 34.8665 37.73 29.5531 40.9762 24.3009C44.2378 23.3668 44.2378 19.4009 44.2378 19.4009C44.2378 19.4009 44.2378 24.4999 49 24.4999C53.7622 24.4999 53.7622 19.4009 53.7622 19.4009C53.7622 19.4009 53.7622 23.3668 57.0238 24.3009C60.27 29.5531 64.1747 34.8665 68.0487 37.7759Z" fill="#9ADB86"/>
<path d="M61.74 38.7865H61.6941C55.3547 38.7865 55.3547 31.6509 55.3547 31.6509C55.3547 31.6509 55.3547 38.7865 49 38.7865C42.6453 38.7865 42.6453 31.6509 42.6453 31.6509C42.6453 31.6509 42.6453 38.7865 36.3059 38.7865H36.26C35.3371 38.8283 34.4182 38.6417 33.5848 38.2431C32.7514 37.8446 32.0293 37.2465 31.4825 36.5019C30.9726 36.9613 30.4612 37.3931 29.9512 37.7759C29.9512 37.7759 29.9512 44.8809 36.26 44.9115H36.3059C42.6453 44.9115 42.6453 37.7759 42.6453 37.7759C42.6453 37.7759 42.6453 44.9115 49 44.9115C55.3547 44.9115 55.3547 37.7759 55.3547 37.7759C55.3547 37.7759 55.3547 44.9115 61.6941 44.9115H61.74C68.0487 44.8809 68.0487 37.7759 68.0487 37.7759C67.5388 37.3931 67.0274 36.9628 66.5175 36.5019C65.9707 37.2465 65.2486 37.8446 64.4152 38.2431C63.5818 38.6417 62.6629 38.8283 61.74 38.7865Z" fill="#8BC178"/>
<path d="M63.2866 19.4009C63.2866 19.4009 63.2866 24.5 58.5244 24.5C58.0174 24.5034 57.5123 24.4364 57.0238 24.3009C53.7622 23.3669 53.7622 19.4009 53.7622 19.4009C53.7622 19.4009 53.7622 24.5 49 24.5C44.2378 24.5 44.2378 19.4009 44.2378 19.4009C44.2378 19.4009 44.2378 23.3669 40.9763 24.3009C40.4877 24.4364 39.9826 24.5034 39.4756 24.5C34.7134 24.5 34.7134 19.4009 34.7134 19.4009C41.8491 14.2866 49 1.53125 49 1.53125C49 1.53125 56.1509 14.2866 63.2866 19.4009Z" fill="#D5FFAB"/>
<path d="M58.5244 19.9062C58.0174 19.9096 57.5123 19.8426 57.0238 19.7071C53.7622 18.7731 53.7622 14.8071 53.7622 14.8071C53.7622 14.8071 53.7622 19.9062 49 19.9062C44.2378 19.9062 44.2378 14.8071 44.2378 14.8071C44.2378 14.8071 44.2378 18.7731 40.9763 19.7071C40.4877 19.8426 39.9826 19.9096 39.4756 19.9062C38.8175 19.9413 38.1601 19.8247 37.5542 19.5653C36.9483 19.3059 36.4101 18.9107 35.9813 18.4102C35.5602 18.7639 35.1361 19.0977 34.7134 19.4009C34.7134 19.4009 34.7134 24.4999 39.4756 24.4999C39.9826 24.5033 40.4877 24.4363 40.9763 24.3009C44.2378 23.3668 44.2378 19.4009 44.2378 19.4009C44.2378 19.4009 44.2378 24.4999 49 24.4999C53.7622 24.4999 53.7622 19.4009 53.7622 19.4009C53.7622 19.4009 53.7622 23.3668 57.0238 24.3009C57.5123 24.4363 58.0174 24.5033 58.5244 24.4999C63.2866 24.4999 63.2866 19.4009 63.2866 19.4009C62.8639 19.0946 62.4398 18.7639 62.0187 18.4102C61.5899 18.9107 61.0517 19.3059 60.4458 19.5653C59.8399 19.8247 59.1825 19.9413 58.5244 19.9062Z" fill="#C6E89E"/>
<path d="M33.6875 93.4062H19.9062V96.4688H33.6875V93.4062Z" fill="#8D5C4D"/>
<path d="M19.9062 71.9688H22.9688C22.9688 66.15 19.7684 55.125 7.65625 55.125V58.1875C19.7194 58.1875 19.9062 71.4083 19.9062 71.9688Z" fill="#DC464F"/>
<path d="M4.59375 55.125H1.53125V58.1875H4.59375V55.125Z" fill="#AA3949"/>
<path d="M4.59375 65.8438C10.4646 65.8438 10.7096 69.9781 10.7188 70.4513L12.25 70.4375H13.7812C13.7812 67.79 11.8611 62.7812 4.59375 62.7812V65.8438Z" fill="#DC464F"/>
<path d="M30.625 65.8438H27.5625V68.9062H30.625V65.8438Z" fill="#FA732D"/>
<path d="M26.4018 47.4228L25.6607 44.4521C24.1656 44.9273 22.8374 45.8198 21.8326 47.0246L24.1203 49.0612C24.7256 48.3262 25.5119 47.7616 26.4018 47.4228Z" fill="#AA3949"/>
<path d="M21.4375 58.1875C21.3612 55.7842 21.8074 53.393 22.7452 51.179L19.969 49.8835C18.8412 52.503 18.2972 55.3366 18.375 58.1875H21.4375Z" fill="#DC464F"/>
<path d="M88.8125 32.1562H85.75V39.8125H88.8125V32.1562Z" fill="#7CC0DD"/>
<path d="M88.8125 42.875H85.75V50.5312H88.8125V42.875Z" fill="#7CC0DD"/>
<path d="M96.4688 39.8125H88.8125V42.875H96.4688V39.8125Z" fill="#7CC0DD"/>
<path d="M85.75 39.8125H78.0938V42.875H85.75V39.8125Z" fill="#7CC0DD"/>
<path d="M92.3232 34.1364L89.2612 37.1985L91.4267 39.364L94.4887 36.302L92.3232 34.1364Z" fill="#7CC0DD"/>
<path d="M83.1357 43.3244L80.0737 46.3865L82.2392 48.552L85.3012 45.4899L83.1357 43.3244Z" fill="#7CC0DD"/>
<path d="M91.4261 43.3234L89.2606 45.4889L92.3227 48.5509L94.4882 46.3854L91.4261 43.3234Z" fill="#7CC0DD"/>
<path d="M82.2397 34.1359L80.0742 36.3014L83.1363 39.3634L85.3018 37.1979L82.2397 34.1359Z" fill="#7CC0DD"/>
<path d="M12.25 1.53125H9.1875V9.1875H12.25V1.53125Z" fill="#7CC0DD"/>
<path d="M12.25 12.25H9.1875V19.9062H12.25V12.25Z" fill="#7CC0DD"/>
<path d="M19.9062 9.1875H12.25V12.25H19.9062V9.1875Z" fill="#7CC0DD"/>
<path d="M9.1875 9.1875H1.53125V12.25H9.1875V9.1875Z" fill="#7CC0DD"/>
<path d="M15.7615 3.51182L12.6995 6.57385L14.865 8.73937L17.927 5.67733L15.7615 3.51182Z" fill="#7CC0DD"/>
<path d="M6.57402 12.6982L3.51198 15.7603L5.67749 17.9258L8.73953 14.8637L6.57402 12.6982Z" fill="#7CC0DD"/>
<path d="M14.8644 12.6987L12.6989 14.8643L15.761 17.9263L17.9265 15.7608L14.8644 12.6987Z" fill="#7CC0DD"/>
<path d="M5.67652 3.51124L3.511 5.67676L6.57304 8.7388L8.73855 6.57328L5.67652 3.51124Z" fill="#7CC0DD"/>
<path d="M75.0312 15.3125H78.0938V12.25H81.1562V9.1875H78.0938V6.125H75.0312V9.1875H71.9688V12.25H75.0312V15.3125Z" fill="#7CC0DD"/>
<path d="M10.7188 35.2188H7.65625V38.2812H10.7188V41.3438H13.7812V38.2812H16.8438V35.2188H13.7812V32.1562H10.7188V35.2188Z" fill="#7CC0DD"/>
<path d="M78.0938 18.375H75.0312V21.4375H78.0938V18.375Z" fill="#FA732D"/>
<path d="M93.4062 22.9688H90.3438V26.0312H93.4062V22.9688Z" fill="#FA732D"/>
<path d="M84.2188 58.1875H81.1562V61.25H84.2188V58.1875Z" fill="#FA732D"/>
<path d="M26.0312 26.0312H22.9688V29.0938H26.0312V26.0312Z" fill="#FA732D"/>
</svg>
