<svg width="98" height="98" viewBox="0 0 98 98" fill="none" xmlns="http://www.w3.org/2000/svg">
<path d="M56.6562 1.53125V10.7188H47.4688L56.6562 1.53125Z" fill="#2F70AA"/>
<path d="M47.4688 35.2188V44.4062H35.2188H33.6875V35.2188H39.8125H47.4688Z" fill="#FC9942"/>
<path d="M47.4688 35.2188V44.4062H43.3849H42.875V35.2188H44.9162H47.4688Z" fill="#FA732D"/>
<path d="M47.4688 44.4062H35.2188V59.7188H47.4688V44.4062Z" fill="#FFC170"/>
<path d="M47.4688 44.4062H42.875V59.7188H47.4688V44.4062Z" fill="#FC9942"/>
<path d="M32.1562 30.625C36.75 30.625 39.8125 35.2188 39.8125 35.2188H29.0938C29.0938 35.2188 29.0938 30.625 32.1562 30.625Z" fill="#FA732D"/>
<path d="M35.2188 44.4062V59.7188H29.0938V44.4062H33.6875H35.2188Z" fill="#DC464F"/>
<path d="M33.6875 35.2188V44.4062H29.0938H26.0312V35.2188H29.0938H33.6875Z" fill="#90262A"/>
<path d="M10.7188 39.8125V55.9213L1.53125 49L10.7188 39.8125Z" fill="#FA732D"/>
<path d="M1.53125 49L10.7188 55.9212V52.8587L3.27841 47.2528L1.53125 49Z" fill="#E5652C"/>
<path d="M47.4688 65.8438H52.7822L47.9741 69.4116L38.2812 76.5625L28.6038 69.4116H28.5884L10.7188 55.9213V24.5H47.4688V35.2188H39.8125C39.8125 35.2188 36.75 30.625 32.1562 30.625C29.0938 30.625 29.0938 35.2188 29.0938 35.2188H26.0312V44.4062H29.0938V59.7188H47.4688V65.8438Z" fill="#F2F6FC"/>
<path d="M47.4688 32.1562H39.8125C39.8125 32.1562 36.75 27.5625 32.1562 27.5625C29.0938 27.5625 29.0938 32.1562 29.0938 32.1562H26.0312V35.2188H29.0938C29.0938 35.2188 29.0938 30.625 32.1562 30.625C36.75 30.625 39.8125 35.2188 39.8125 35.2188H47.4688V32.1562Z" fill="#CDD2E1"/>
<path d="M47.9741 66.3491L38.2812 73.5L28.6038 66.3491H28.5884L10.7188 52.8588V55.9213L28.5884 69.4116H28.6038L38.2812 76.5625L47.9741 69.4116L52.7822 65.8438H48.6555L47.9741 66.3491Z" fill="#CDD2E1"/>
<path d="M96.4688 1.53125V65.8438H75.0312H52.7822H47.4688V59.7188V44.4062V35.2188V24.5V10.7188H56.6562V1.53125H96.4688Z" fill="#C9F4FB"/>
<path d="M78.0938 62.7812H55.8447H50.5312V56.6562V41.3438V32.1562V21.4375V10.7188H47.4688V24.5V35.2188V44.4062V59.7188V65.8438H52.7822H75.0312H96.4688V62.7812H78.0938Z" fill="#C2EAEF"/>
<path d="M47.9741 69.4116L74.1278 95.5654C73.8471 95.8532 73.5112 96.0816 73.1402 96.2368C72.7693 96.3921 72.3709 96.4709 71.9688 96.4688H4.59375C4.19164 96.4709 3.79322 96.3921 3.42227 96.2368C3.05132 96.0816 2.71545 95.8532 2.43469 95.5654L28.5884 69.4116H28.6038L38.2813 76.5626L47.9741 69.4116Z" fill="#FC9942"/>
<path d="M71.9688 93.4062H4.59375L2.43469 95.5653C2.71545 95.8532 3.05132 96.0816 3.42227 96.2368C3.79322 96.392 4.19164 96.4709 4.59375 96.4688H71.9688C72.3709 96.4709 72.7693 96.392 73.1402 96.2368C73.5112 96.0816 73.8471 95.8532 74.1278 95.5653L71.9688 93.4062Z" fill="#E5863E"/>
<path d="M10.7187 55.9213L28.5884 69.4116L2.43467 95.5653C2.14679 95.2846 1.91843 94.9487 1.76321 94.5777C1.60799 94.2068 1.52909 93.8084 1.53123 93.4062V49L10.7187 55.9213Z" fill="#FFC170"/>
<path d="M75.0312 65.8438V93.4062C75.0334 93.8084 74.9545 94.2068 74.7993 94.5777C74.6441 94.9487 74.4157 95.2846 74.1278 95.5653L47.9741 69.4116L52.7822 65.8438H75.0312Z" fill="#FFC170"/>
<path d="M75.0466 43.2885C74.1835 44.0106 73.0941 44.4064 71.9688 44.4064C70.8434 44.4064 69.754 44.0106 68.8909 43.2885C67.9452 42.2523 67.4067 40.9088 67.375 39.5063C67.375 39.5063 67.375 44.4063 62.7812 44.4063C58.1875 44.4063 58.1875 39.5063 58.1875 39.5063C60.3259 37.8514 62.2091 35.8908 63.7766 33.6875H63.8072C67.8803 33.6875 67.8803 29.4 67.8803 29.4C67.8803 29.4 67.8803 33.6875 71.9688 33.6875C76.0572 33.6875 76.0572 29.4 76.0572 29.4C76.0572 29.4 76.0572 33.6875 80.1303 33.6875H80.1609C81.7283 35.8908 83.6116 37.8514 85.75 39.5063C85.75 39.5063 85.75 44.4063 81.1562 44.4063C76.5625 44.4063 76.5625 39.5063 76.5625 39.5063C76.5308 40.9088 75.9923 42.2523 75.0466 43.2885Z" fill="#74B580"/>
<path d="M81.1562 41.3437C76.5625 41.3437 76.5625 36.4437 76.5625 36.4437C76.5308 37.8462 75.9923 39.1898 75.0466 40.2259C74.1835 40.9481 73.0941 41.3438 71.9688 41.3438C70.8434 41.3438 69.754 40.9481 68.8909 40.2259C67.9452 39.1898 67.4067 37.8462 67.375 36.4437C67.375 36.4437 67.375 41.3437 62.7812 41.3437C61.9615 41.3949 61.1452 41.1986 60.4384 40.7803C59.7315 40.362 59.1666 39.741 58.8168 38.9979C58.6071 39.1663 58.3973 39.3562 58.1875 39.5062C58.1875 39.5062 58.1875 44.4062 62.7812 44.4062C67.375 44.4062 67.375 39.5062 67.375 39.5062C67.4067 40.9087 67.9452 42.2523 68.8909 43.2884C69.754 44.0106 70.8434 44.4063 71.9688 44.4063C73.0941 44.4063 74.1835 44.0106 75.0466 43.2884C75.9923 42.2523 76.5308 40.9087 76.5625 39.5062C76.5625 39.5062 76.5625 44.4062 81.1562 44.4062C85.75 44.4062 85.75 39.5062 85.75 39.5062C85.5402 39.3531 85.3304 39.1663 85.1207 38.9979C84.7709 39.741 84.206 40.362 83.4991 40.7803C82.7923 41.1986 81.976 41.3949 81.1562 41.3437Z" fill="#65996D"/>
<path d="M84.2188 29.4C84.2188 29.4 84.2187 33.6722 80.1609 33.6875H80.1303C76.0572 33.6875 76.0572 29.4 76.0572 29.4C76.0572 29.4 76.0572 33.6875 71.9688 33.6875C67.8803 33.6875 67.8803 29.4 67.8803 29.4C67.8803 29.4 67.8803 33.6875 63.8072 33.6875H63.7766C59.7188 33.6722 59.7188 29.4 59.7188 29.4C62.5316 27.1351 64.9303 24.3996 66.8084 21.315C67.422 21.1065 67.9546 20.7105 68.331 20.183C68.7074 19.6555 68.9086 19.023 68.9062 18.375C68.9062 19.1872 69.2289 19.9662 69.8032 20.5405C70.3776 21.1148 71.1565 21.4375 71.9688 21.4375C72.781 21.4375 73.5599 21.1148 74.1343 20.5405C74.7086 19.9662 75.0312 19.1872 75.0312 18.375C75.0289 19.023 75.2301 19.6555 75.6065 20.183C75.9829 20.7105 76.5155 21.1065 77.1291 21.315C79.0072 24.3996 81.4059 27.1351 84.2188 29.4Z" fill="#9ADB86"/>
<path d="M80.1609 30.625H80.1303C76.0572 30.625 76.0572 26.3375 76.0572 26.3375C76.0572 26.3375 76.0572 30.625 71.9688 30.625C67.8803 30.625 67.8803 26.3375 67.8803 26.3375C67.8803 26.3375 67.8803 30.625 63.8072 30.625H63.7766C63.1099 30.6645 62.4452 30.5201 61.8549 30.2077C61.2647 29.8953 60.7715 29.4268 60.4293 28.8534C60.1934 29.0448 59.9561 29.2346 59.7188 29.4C59.7188 29.4 59.7188 33.6722 63.7766 33.6875H63.8072C67.8803 33.6875 67.8803 29.4 67.8803 29.4C67.8803 29.4 67.8803 33.6875 71.9688 33.6875C76.0572 33.6875 76.0572 29.4 76.0572 29.4C76.0572 29.4 76.0572 33.6875 80.1303 33.6875H80.1609C84.2187 33.6722 84.2188 29.4 84.2188 29.4C83.9814 29.2346 83.7441 29.0448 83.5082 28.8534C83.166 29.4268 82.6728 29.8953 82.0826 30.2077C81.4923 30.5201 80.8276 30.6645 80.1609 30.625Z" fill="#8BC178"/>
<path d="M81.1563 18.375C81.1648 18.7795 81.0914 19.1816 80.9406 19.557C80.7897 19.9324 80.5644 20.2735 80.2783 20.5596C79.9922 20.8457 79.6512 21.0709 79.2758 21.2218C78.9003 21.3727 78.4983 21.4461 78.0938 21.4375C77.7681 21.4404 77.4436 21.3992 77.1291 21.315C76.5155 21.1065 75.9829 20.7105 75.6065 20.183C75.2301 19.6555 75.0289 19.023 75.0313 18.375C75.0313 19.1872 74.7086 19.9662 74.1343 20.5405C73.5599 21.1148 72.781 21.4375 71.9688 21.4375C71.1565 21.4375 70.3776 21.1148 69.8032 20.5405C69.2289 19.9662 68.9062 19.1872 68.9062 18.375C68.9086 19.023 68.7074 19.6555 68.331 20.183C67.9546 20.7105 67.422 21.1065 66.8084 21.315C66.4939 21.3992 66.1694 21.4404 65.8438 21.4375C65.4392 21.4461 65.0372 21.3727 64.6617 21.2218C64.2863 21.0709 63.9453 20.8457 63.6592 20.5596C63.3731 20.2735 63.1478 19.9324 62.9969 19.557C62.8461 19.1816 62.7727 18.7795 62.7812 18.375C67.375 15.3125 71.9688 7.65625 71.9688 7.65625C71.9688 7.65625 76.5625 15.3125 81.1563 18.375Z" fill="#D5FFAB"/>
<path d="M78.0938 18.375C77.7681 18.3779 77.4436 18.3367 77.1291 18.2525C76.5155 18.044 75.9829 17.648 75.6065 17.1205C75.2301 16.593 75.0289 15.9605 75.0313 15.3125C75.0313 16.1247 74.7086 16.9037 74.1343 17.478C73.5599 18.0523 72.781 18.375 71.9688 18.375C71.1565 18.375 70.3776 18.0523 69.8032 17.478C69.2289 16.9037 68.9062 16.1247 68.9062 15.3125C68.9086 15.9605 68.7074 16.593 68.331 17.1205C67.9546 17.648 67.422 18.044 66.8084 18.2525C66.4939 18.3367 66.1694 18.3779 65.8438 18.375C65.0854 18.4094 64.3442 18.1431 63.7812 17.6339C63.4489 17.9003 63.1151 18.153 62.7812 18.375C62.7727 18.7795 62.8461 19.1816 62.9969 19.557C63.1478 19.9324 63.3731 20.2735 63.6592 20.5596C63.9453 20.8457 64.2863 21.0709 64.6617 21.2218C65.0372 21.3727 65.4392 21.4461 65.8438 21.4375C66.1694 21.4404 66.4939 21.3992 66.8084 21.315C67.422 21.1065 67.9546 20.7105 68.331 20.183C68.7074 19.6555 68.9086 19.023 68.9062 18.375C68.9062 19.1872 69.2289 19.9662 69.8032 20.5405C70.3776 21.1148 71.1565 21.4375 71.9688 21.4375C72.781 21.4375 73.5599 21.1148 74.1343 20.5405C74.7086 19.9662 75.0313 19.1872 75.0313 18.375C75.0289 19.023 75.2301 19.6555 75.6065 20.183C75.9829 20.7105 76.5155 21.1065 77.1291 21.315C77.4436 21.3992 77.7681 21.4404 78.0938 21.4375C78.4983 21.4461 78.9003 21.3727 79.2758 21.2218C79.6512 21.0709 79.9922 20.8457 80.2783 20.5596C80.5644 20.2735 80.7897 19.9324 80.9406 19.557C81.0914 19.1816 81.1648 18.7795 81.1563 18.375C80.8224 18.153 80.4886 17.9003 80.1563 17.6339C79.5933 18.1431 78.8521 18.4094 78.0938 18.375Z" fill="#C6E89E"/>
<path d="M76.5625 53.5938H67.375C68.3417 50.2425 68.8517 46.7761 68.8909 43.2885C69.754 44.0106 70.8434 44.4064 71.9688 44.4064C73.0941 44.4064 74.1835 44.0106 75.0466 43.2885C75.0858 46.7761 75.5958 50.2425 76.5625 53.5938Z" fill="#966857"/>
<path d="M71.5676 46.8379C71.6839 45.9651 71.7651 45.1336 71.8233 44.3879C70.7406 44.4069 69.6916 44.0114 68.8909 43.2823C68.8522 46.7721 68.3423 50.2406 67.375 53.5938H76.5625C76.3987 53.0977 76.2563 52.5847 76.1215 52.0625C75.4653 52.0611 74.8169 51.9194 74.2198 51.647C73.6228 51.3745 73.0909 50.9777 72.6597 50.483C72.2285 49.9883 71.908 49.4071 71.7196 48.7785C71.5313 48.1499 71.4794 47.4882 71.5676 46.8379Z" fill="#8D5C4D"/>
<path d="M55.125 58.1875H52.0625V61.25H55.125V58.1875Z" fill="#98CBE8"/>
<path d="M91.875 58.1875H58.1875V61.25H91.875V58.1875Z" fill="#98CBE8"/>
<path d="M18.375 29.0938H15.3125V32.1562H18.375V29.0938Z" fill="#CDD2E1"/>
<path d="M18.375 35.2188H15.3125V45.9375H18.375V35.2188Z" fill="#CDD2E1"/>
<path d="M12.25 1.53125H9.1875V9.1875H12.25V1.53125Z" fill="#98CBE8"/>
<path d="M12.25 12.25H9.1875V19.9062H12.25V12.25Z" fill="#98CBE8"/>
<path d="M19.9062 9.1875H12.25V12.25H19.9062V9.1875Z" fill="#98CBE8"/>
<path d="M9.1875 9.1875H1.53125V12.25H9.1875V9.1875Z" fill="#98CBE8"/>
<path d="M15.7615 3.51182L12.6995 6.57385L14.865 8.73937L17.927 5.67733L15.7615 3.51182Z" fill="#98CBE8"/>
<path d="M6.574 12.6982L3.51196 15.7603L5.67748 17.9258L8.73951 14.8637L6.574 12.6982Z" fill="#98CBE8"/>
<path d="M14.8644 12.6987L12.6989 14.8643L15.761 17.9263L17.9265 15.7608L14.8644 12.6987Z" fill="#98CBE8"/>
<path d="M5.6765 3.51124L3.51099 5.67676L6.57302 8.7388L8.73854 6.57328L5.6765 3.51124Z" fill="#98CBE8"/>
<path d="M88.8125 68.9062H85.75V76.5625H88.8125V68.9062Z" fill="#98CBE8"/>
<path d="M88.8125 79.625H85.75V87.2812H88.8125V79.625Z" fill="#98CBE8"/>
<path d="M96.4688 76.5625H88.8125V79.625H96.4688V76.5625Z" fill="#98CBE8"/>
<path d="M85.75 76.5625H78.0938V79.625H85.75V76.5625Z" fill="#98CBE8"/>
<path d="M92.3225 70.8858L89.2605 73.9479L91.426 76.1134L94.4881 73.0513L92.3225 70.8858Z" fill="#98CBE8"/>
<path d="M83.135 80.0737L80.073 83.1357L82.2385 85.3013L85.3006 82.2392L83.135 80.0737Z" fill="#98CBE8"/>
<path d="M91.427 80.0742L89.2615 82.2397L92.3235 85.3018L94.489 83.1363L91.427 80.0742Z" fill="#98CBE8"/>
<path d="M82.2391 70.8867L80.0735 73.0522L83.1356 76.1143L85.3011 73.9488L82.2391 70.8867Z" fill="#98CBE8"/>
<path d="M35.2188 19.9062H38.2812V16.8438H41.3438V13.7812H38.2812V10.7188H35.2188V13.7812H32.1562V16.8438H35.2188V19.9062Z" fill="#98CBE8"/>
<path d="M87.2812 19.9062H90.3438V16.8438H93.4062V13.7812H90.3438V10.7188H87.2812V13.7812H84.2188V16.8438H87.2812V19.9062Z" fill="#98CBE8"/>
<path d="M58.1875 56.6562V53.5938H61.25V50.5312H58.1875V47.4688H55.125V50.5312H52.0625V53.5938H55.125V56.6562H58.1875Z" fill="#98CBE8"/>
</svg>
