<svg width="110" height="111" viewBox="0 0 110 111" fill="none" xmlns="http://www.w3.org/2000/svg">
<g clip-path="url(#clip0_3_7574)">
<path d="M82.8008 4.46255C82.7587 3.74962 82.4578 3.07734 81.9556 2.57409C81.4534 2.07085 80.7851 1.77191 80.0783 1.73438C79.409 1.73973 78.7683 2.00857 78.2925 2.48363L56.9903 23.2111C56.3507 23.8549 55.8451 24.6212 55.5033 25.465C55.1615 26.3088 54.9904 27.2131 55 28.1246V32.9531H85.9375L82.8008 4.46255ZM65.3125 27.75V25.6046C65.3082 25.1994 65.3842 24.7975 65.5362 24.4225C65.6883 24.0474 65.9132 23.7069 66.1977 23.421L75.6645 14.208C75.8762 13.9969 76.1611 13.8775 76.4586 13.875C76.7717 13.8936 77.0671 14.0274 77.2889 14.2512C77.5107 14.475 77.6433 14.7731 77.6617 15.0891L79.0625 27.75H65.3125Z" fill="#22893F"/>
<path d="M53.0097 23.2111L31.7075 2.48363C31.2318 2.00857 30.591 1.73973 29.9217 1.73438C29.2149 1.77191 28.5466 2.07085 28.0444 2.57409C27.5422 3.07734 27.2413 3.74962 27.1992 4.46255L24.0625 32.9531H55V28.1246C55.0096 27.2131 54.8385 26.3088 54.4967 25.465C54.1549 24.6212 53.6493 23.8549 53.0097 23.2111ZM44.6875 27.75H30.9375L32.3314 15.0891C32.3498 14.7731 32.4825 14.475 32.7042 14.2512C32.926 14.0274 33.2214 13.8936 33.5345 13.875C33.8321 13.8775 34.117 13.9969 34.3286 14.208L43.8023 23.4141C44.0877 23.7008 44.3131 24.0424 44.4651 24.4187C44.6172 24.795 44.6928 25.1983 44.6875 25.6046V27.75Z" fill="#22893F"/>
<path d="M108.281 32.9531H1.71875V50.2969H108.281V32.9531Z" fill="#A43232"/>
<path d="M67.0312 32.9531H42.9688V50.2969H67.0312V32.9531Z" fill="#4EA165"/>
<path d="M101.406 50.2969H8.59375V109.266H101.406V50.2969Z" fill="#DB4242"/>
<path d="M63.5938 50.2969H46.4062V109.266H63.5938V50.2969Z" fill="#8DC69E"/>
<path d="M108.281 31.2188H87.4844L84.5075 4.27177C84.4193 3.13431 83.9185 2.06964 83.101 1.28149C82.2834 0.493339 81.2066 0.0370702 80.0766 0C78.962 0.00490505 77.8933 0.448588 77.098 1.23661L55.7975 21.9624C55.5064 22.2611 55.2397 22.583 55 22.925C54.7603 22.583 54.4936 22.2611 54.2025 21.9624L32.902 1.23661C32.1067 0.448588 31.038 0.00490505 29.9234 0C28.7935 0.0374483 27.7169 0.493842 26.8994 1.28192C26.082 2.06999 25.5811 3.13445 25.4925 4.27177L22.5242 31.2188H1.71875C1.26291 31.2188 0.825738 31.4015 0.50341 31.7267C0.181082 32.052 0 32.4931 0 32.9531L0 50.2969C0 50.7569 0.181082 51.198 0.50341 51.5233C0.825738 51.8485 1.26291 52.0312 1.71875 52.0312H6.875V109.266C6.875 109.726 7.05608 110.167 7.37841 110.492C7.70074 110.817 8.13791 111 8.59375 111H101.406C101.862 111 102.299 110.817 102.622 110.492C102.944 110.167 103.125 109.726 103.125 109.266V52.0312H108.281C108.737 52.0312 109.174 51.8485 109.497 51.5233C109.819 51.198 110 50.7569 110 50.2969V32.9531C110 32.4931 109.819 32.052 109.497 31.7267C109.174 31.4015 108.737 31.2188 108.281 31.2188ZM58.1848 24.4547L79.487 3.73237C80.0748 3.15309 80.9875 3.70983 81.0923 4.65506L84.0177 31.2188H56.7188V28.1246C56.7077 27.4451 56.8317 26.7702 57.0835 26.1399C57.3354 25.5095 57.7098 24.9365 58.1848 24.4547ZM65.3125 48.5625H44.6875V34.6875H65.3125V48.5625ZM28.9077 4.65506C29.0108 3.70983 29.92 3.15136 30.5147 3.73237L51.8152 24.4547C52.2902 24.9365 52.6646 25.5095 52.9165 26.1399C53.1683 26.7702 53.2923 27.4451 53.2812 28.1246V31.2188H25.9823L28.9077 4.65506ZM3.4375 34.6875H41.25V48.5625H3.4375V34.6875ZM10.3125 52.0312H44.6875V107.531H10.3125V52.0312ZM48.125 107.531V52.0312H61.875V107.531H48.125ZM99.6875 107.531H65.3125V52.0312H99.6875V107.531ZM106.562 48.5625H68.75V34.6875H106.562V48.5625Z" fill="black"/>
<path d="M46.4062 27.75V25.6046C46.4103 24.9665 46.2877 24.334 46.0457 23.7445C45.8036 23.155 45.447 22.6204 44.9968 22.1723L35.53 12.961C34.9982 12.4367 34.2848 12.1424 33.5414 12.1406C32.8034 12.1561 32.0971 12.4459 31.5579 12.9545C31.0187 13.4631 30.6845 14.1546 30.6195 14.8965L29.2256 27.5575C29.1987 27.8003 29.223 28.0461 29.2968 28.2788C29.3706 28.5115 29.4923 28.7258 29.6539 28.9077C29.8156 29.0897 30.0135 29.2351 30.2346 29.3344C30.4558 29.4338 30.6953 29.4849 30.9375 29.4844H44.6875C45.1433 29.4844 45.5805 29.3016 45.9028 28.9764C46.2251 28.6511 46.4062 28.21 46.4062 27.75ZM42.9687 26.0156H32.8573L33.935 16.2285L42.6095 24.668C42.8475 24.9198 42.9767 25.2567 42.9687 25.6046V26.0156Z" fill="black"/>
<path d="M65.3125 29.4844H79.0625C79.3041 29.4844 79.5431 29.433 79.7638 29.3335C79.9844 29.234 80.1818 29.0887 80.343 28.907C80.5042 28.7253 80.6257 28.5114 80.6994 28.2792C80.7731 28.0469 80.7975 27.8016 80.7709 27.5592L79.377 14.8983C79.3124 14.1567 78.9789 13.4652 78.4404 12.9563C77.9019 12.4474 77.1962 12.157 76.4586 12.1406C75.7156 12.1421 75.0026 12.4365 74.4717 12.961L65.0031 22.1723C64.553 22.6204 64.1963 23.155 63.9543 23.7445C63.7122 24.334 63.5896 24.9665 63.5937 25.6046V27.75C63.5937 28.21 63.7748 28.6511 64.0971 28.9764C64.4195 29.3016 64.8566 29.4844 65.3125 29.4844ZM67.0312 25.6046C67.0232 25.2567 67.1524 24.9198 67.3904 24.668L76.065 16.2285L77.1426 26.0156H67.0312V25.6046Z" fill="black"/>
<g opacity="0.5">
<path d="M101.406 50.2969H8.59375V55.5H101.406V50.2969Z" fill="black"/>
</g>
</g>
<defs>
<clipPath id="clip0_3_7574">
<rect width="110" height="111" fill="white"/>
</clipPath>
</defs>
</svg>
