<svg width="98" height="98" viewBox="0 0 98 98" fill="none" xmlns="http://www.w3.org/2000/svg">
<path d="M79.625 45.7078L88.8125 38.2812V93.4062C88.8146 93.8084 88.7357 94.2068 88.5805 94.5777C88.4253 94.9487 88.1969 95.2846 87.9091 95.5653L56.6563 64.3125L56.6256 64.2819L79.625 45.7078Z" fill="#FFC170"/>
<path d="M88.8125 38.2812L79.625 45.7078V29.0938L88.8125 38.2812Z" fill="#FA732D"/>
<path d="M56.6562 64.3125L87.9091 95.5653C87.6283 95.8532 87.2924 96.0815 86.9215 96.2368C86.5505 96.392 86.1521 96.4709 85.75 96.4687H12.25C11.8479 96.4709 11.4495 96.392 11.0785 96.2368C10.7076 96.0815 10.3717 95.8532 10.0909 95.5653L41.3438 64.3125L41.3744 64.2819L49 70.4375L56.6256 64.2819L56.6562 64.3125Z" fill="#FC9942"/>
<path d="M79.625 29.0938V45.7078L56.6256 64.2819L49 70.4375L41.3744 64.2819L18.375 45.7078V13.7812H27.5625C28.374 13.7788 29.1515 13.4554 29.7253 12.8816C30.2991 12.3078 30.6226 11.5302 30.625 10.7188V1.53125H76.5625C77.374 1.53367 78.1515 1.85711 78.7253 2.43091C79.2991 3.00472 79.6226 3.78227 79.625 4.59375V29.0938ZM58.1875 45.9375C62.7812 45.9375 62.7812 41.0375 62.7812 41.0375C60.6428 39.3827 58.7596 37.4221 57.1922 35.2188C61.25 35.2034 61.25 30.9313 61.25 30.9313C58.4372 28.6663 56.0384 25.9308 54.1603 22.8463C54.4749 22.9305 54.7994 22.9717 55.125 22.9688C55.5295 22.9773 55.9316 22.9039 56.307 22.7531C56.6824 22.6022 57.0235 22.3769 57.3096 22.0908C57.5957 21.8047 57.8209 21.4637 57.9718 21.0883C58.1227 20.7128 58.1961 20.3108 58.1875 19.9062C53.5938 16.8438 49 9.1875 49 9.1875C49 9.1875 44.4062 16.8438 39.8125 19.9062C39.8039 20.3108 39.8773 20.7128 40.0282 21.0883C40.1791 21.4637 40.4043 21.8047 40.6904 22.0908C40.9765 22.3769 41.3176 22.6022 41.693 22.7531C42.0684 22.9039 42.4705 22.9773 42.875 22.9688C43.2006 22.9717 43.5251 22.9305 43.8397 22.8463C41.9616 25.9308 39.5628 28.6663 36.75 30.9313C36.75 30.9313 36.75 35.2034 40.8078 35.2188C39.2404 37.4221 37.3572 39.3827 35.2188 41.0375C35.2188 41.0375 35.2188 45.9375 39.8125 45.9375C44.4062 45.9375 44.4062 41.0375 44.4062 41.0375C44.438 42.44 44.9765 43.7835 45.9222 44.8197C45.8829 48.3074 45.373 51.7738 44.4062 55.125H53.5938C52.627 51.7738 52.1171 48.3074 52.0778 44.8197C53.0235 43.7835 53.562 42.44 53.5938 41.0375C53.5938 41.0375 53.5938 45.9375 58.1875 45.9375Z" fill="#F2F6FC"/>
<path d="M49 67.375L41.3744 61.2193L18.375 42.6453V45.7078L41.3744 64.2818L49 70.4375L56.6256 64.2818L79.625 45.7078V42.6453L56.6256 61.2193L49 67.375Z" fill="#CDD2E1"/>
<path d="M52.0778 44.8197C51.2148 45.5419 50.1253 45.9376 49 45.9376C47.8747 45.9376 46.7852 45.5419 45.9222 44.8197C44.9765 43.7836 44.438 42.44 44.4062 41.0375C44.4062 41.0375 44.4062 45.9375 39.8125 45.9375C35.2188 45.9375 35.2188 41.0375 35.2188 41.0375C37.3572 39.3827 39.2404 37.4221 40.8078 35.2188H40.8384C44.9116 35.2188 44.9116 30.9313 44.9116 30.9313C44.9116 30.9313 44.9116 35.2188 49 35.2188C53.0884 35.2188 53.0884 30.9313 53.0884 30.9313C53.0884 30.9313 53.0884 35.2188 57.1616 35.2188H57.1922C58.7596 37.4221 60.6428 39.3827 62.7812 41.0375C62.7812 41.0375 62.7812 45.9375 58.1875 45.9375C53.5938 45.9375 53.5938 41.0375 53.5938 41.0375C53.562 42.44 53.0235 43.7836 52.0778 44.8197Z" fill="#74B580"/>
<path d="M58.1875 42.875C53.5938 42.875 53.5938 37.975 53.5938 37.975C53.562 39.3775 53.0235 40.721 52.0778 41.7572C51.2148 42.4794 50.1253 42.8751 49 42.8751C47.8747 42.8751 46.7852 42.4794 45.9222 41.7572C44.9765 40.721 44.438 39.3775 44.4062 37.975C44.4062 37.975 44.4062 42.875 39.8125 42.875C38.9927 42.9261 38.1765 42.7299 37.4696 42.3116C36.7627 41.8933 36.1978 41.2723 35.8481 40.5291C35.6383 40.6975 35.4285 40.8874 35.2188 41.0375C35.2188 41.0375 35.2188 45.9375 39.8125 45.9375C44.4062 45.9375 44.4062 41.0375 44.4062 41.0375C44.438 42.44 44.9765 43.7835 45.9222 44.8197C46.7852 45.5419 47.8747 45.9376 49 45.9376C50.1253 45.9376 51.2148 45.5419 52.0778 44.8197C53.0235 43.7835 53.562 42.44 53.5938 41.0375C53.5938 41.0375 53.5938 45.9375 58.1875 45.9375C62.7812 45.9375 62.7812 41.0375 62.7812 41.0375C62.5715 40.8844 62.3617 40.6975 62.1519 40.5291C61.8022 41.2723 61.2373 41.8933 60.5304 42.3116C59.8235 42.7299 59.0073 42.9261 58.1875 42.875Z" fill="#65996D"/>
<path d="M61.25 30.9313C61.25 30.9313 61.25 35.2034 57.1922 35.2188H57.1616C53.0884 35.2188 53.0884 30.9313 53.0884 30.9313C53.0884 30.9313 53.0884 35.2188 49 35.2188C44.9116 35.2188 44.9116 30.9313 44.9116 30.9313C44.9116 30.9313 44.9116 35.2188 40.8384 35.2188H40.8078C36.75 35.2034 36.75 30.9313 36.75 30.9313C39.5628 28.6663 41.9616 25.9308 43.8397 22.8463C44.4533 22.6377 44.9859 22.2418 45.3623 21.7142C45.7387 21.1867 45.9399 20.5543 45.9375 19.9062C45.9375 20.7185 46.2602 21.4974 46.8345 22.0718C47.4088 22.6461 48.1878 22.9688 49 22.9688C49.8122 22.9688 50.5912 22.6461 51.1655 22.0718C51.7398 21.4974 52.0625 20.7185 52.0625 19.9062C52.0601 20.5543 52.2613 21.1867 52.6377 21.7142C53.0141 22.2418 53.5467 22.6377 54.1603 22.8463C56.0384 25.9308 58.4372 28.6663 61.25 30.9313Z" fill="#9ADB86"/>
<path d="M57.1922 32.1563H57.1616C53.0884 32.1563 53.0884 27.8688 53.0884 27.8688C53.0884 27.8688 53.0884 32.1563 49 32.1563C44.9116 32.1563 44.9116 27.8688 44.9116 27.8688C44.9116 27.8688 44.9116 32.1563 40.8384 32.1563H40.8078C40.1411 32.1957 39.4764 32.0513 38.8862 31.7389C38.2959 31.4265 37.8028 30.9581 37.4605 30.3846C37.2247 30.576 36.9873 30.7659 36.75 30.9313C36.75 30.9313 36.75 35.2035 40.8078 35.2188H40.8384C44.9116 35.2188 44.9116 30.9313 44.9116 30.9313C44.9116 30.9313 44.9116 35.2188 49 35.2188C53.0884 35.2188 53.0884 30.9313 53.0884 30.9313C53.0884 30.9313 53.0884 35.2188 57.1616 35.2188H57.1922C61.25 35.2035 61.25 30.9313 61.25 30.9313C61.0127 30.7659 60.7753 30.576 60.5395 30.3846C60.1972 30.9581 59.7041 31.4265 59.1138 31.7389C58.5236 32.0513 57.8589 32.1957 57.1922 32.1563Z" fill="#8BC178"/>
<path d="M58.1875 19.9062C58.1961 20.3108 58.1227 20.7128 57.9718 21.0883C57.8209 21.4637 57.5957 21.8047 57.3096 22.0908C57.0235 22.3769 56.6824 22.6022 56.307 22.7531C55.9316 22.9039 55.5295 22.9773 55.125 22.9688C54.7994 22.9717 54.4749 22.9305 54.1603 22.8463C53.5467 22.6377 53.0142 22.2418 52.6377 21.7142C52.2613 21.1867 52.0601 20.5543 52.0625 19.9062C52.0625 20.7185 51.7398 21.4974 51.1655 22.0718C50.5912 22.6461 49.8122 22.9688 49 22.9688C48.1878 22.9688 47.4088 22.6461 46.8345 22.0718C46.2602 21.4974 45.9375 20.7185 45.9375 19.9062C45.9399 20.5543 45.7387 21.1867 45.3623 21.7142C44.9859 22.2418 44.4533 22.6377 43.8397 22.8463C43.5251 22.9305 43.2006 22.9717 42.875 22.9688C42.4705 22.9773 42.0684 22.9039 41.693 22.7531C41.3176 22.6022 40.9765 22.3769 40.6904 22.0908C40.4043 21.8047 40.1791 21.4637 40.0282 21.0883C39.8773 20.7128 39.8039 20.3108 39.8125 19.9062C44.4062 16.8438 49 9.1875 49 9.1875C49 9.1875 53.5938 16.8438 58.1875 19.9062Z" fill="#D5FFAB"/>
<path d="M55.125 19.9062C54.7994 19.9092 54.4749 19.868 54.1603 19.7838C53.5467 19.5752 53.0142 19.1793 52.6377 18.6517C52.2613 18.1242 52.0601 17.4918 52.0625 16.8438C52.0625 17.656 51.7398 18.4349 51.1655 19.0093C50.5912 19.5836 49.8122 19.9062 49 19.9062C48.1878 19.9062 47.4088 19.5836 46.8345 19.0093C46.2602 18.4349 45.9375 17.656 45.9375 16.8438C45.9399 17.4918 45.7387 18.1242 45.3623 18.6517C44.9859 19.1793 44.4533 19.5752 43.8397 19.7838C43.5251 19.868 43.2006 19.9092 42.875 19.9062C42.1167 19.9407 41.3754 19.6743 40.8124 19.1651C40.4801 19.4316 40.1463 19.6842 39.8125 19.9062C39.8039 20.3108 39.8773 20.7128 40.0282 21.0883C40.1791 21.4637 40.4043 21.8047 40.6904 22.0908C40.9765 22.3769 41.3176 22.6022 41.693 22.7531C42.0684 22.9039 42.4705 22.9773 42.875 22.9688C43.2006 22.9717 43.5251 22.9305 43.8397 22.8463C44.4533 22.6377 44.9859 22.2418 45.3623 21.7142C45.7387 21.1867 45.9399 20.5543 45.9375 19.9062C45.9375 20.7185 46.2602 21.4974 46.8345 22.0718C47.4088 22.6461 48.1878 22.9688 49 22.9688C49.8122 22.9688 50.5912 22.6461 51.1655 22.0718C51.7398 21.4974 52.0625 20.7185 52.0625 19.9062C52.0601 20.5543 52.2613 21.1867 52.6377 21.7142C53.0142 22.2418 53.5467 22.6377 54.1603 22.8463C54.4749 22.9305 54.7994 22.9717 55.125 22.9688C55.5295 22.9773 55.9316 22.9039 56.307 22.7531C56.6824 22.6022 57.0235 22.3769 57.3096 22.0908C57.5957 21.8047 57.8209 21.4637 57.9718 21.0883C58.1227 20.7128 58.1961 20.3108 58.1875 19.9062C57.8537 19.6842 57.5199 19.4316 57.1876 19.1651C56.6246 19.6743 55.8833 19.9407 55.125 19.9062Z" fill="#C6E89E"/>
<path d="M53.5938 55.125H44.4062C45.373 51.7738 45.8829 48.3074 45.9222 44.8197C46.7852 45.5419 47.8747 45.9376 49 45.9376C50.1253 45.9376 51.2148 45.5419 52.0778 44.8197C52.1171 48.3074 52.627 51.7738 53.5938 55.125Z" fill="#966857"/>
<path d="M48.5988 48.3692C48.7152 47.4963 48.7963 46.6649 48.8545 45.9192C47.7718 45.9382 46.7228 45.5427 45.9222 44.8136C45.8835 48.3033 45.3735 51.7718 44.4062 55.125H53.5938C53.4299 54.6289 53.2875 54.1159 53.1528 53.5938C52.4965 53.5923 51.8481 53.4506 51.2511 53.1782C50.6541 52.9058 50.1221 52.5089 49.6909 52.0142C49.2597 51.5195 48.9392 50.9384 48.7509 50.3097C48.5625 49.6811 48.5107 49.0195 48.5988 48.3692Z" fill="#8D5C4D"/>
<path d="M18.375 45.7078L41.3744 64.2819L41.3438 64.3125L10.0909 95.5653C9.80306 95.2846 9.5747 94.9487 9.41948 94.5777C9.26426 94.2068 9.18536 93.8084 9.1875 93.4062V38.2812L18.375 45.7078Z" fill="#FFC170"/>
<path d="M30.625 1.53125V10.7188C30.6226 11.5302 30.2991 12.3078 29.7253 12.8816C29.1515 13.4554 28.374 13.7788 27.5625 13.7812H18.375L30.625 1.53125Z" fill="#9196AA"/>
<path d="M18.375 29.0938V45.7078L9.1875 38.2812L18.375 29.0938Z" fill="#FA732D"/>
<path d="M26.0312 88.8125H22.9688V91.875H26.0312V88.8125Z" fill="#FA732D"/>
<path d="M75.0312 88.8125H29.0938V91.875H75.0312V88.8125Z" fill="#FA732D"/>
</svg>
