<svg width="98" height="98" viewBox="0 0 98 98" fill="none" xmlns="http://www.w3.org/2000/svg">
<path d="M47.4688 26.95V27.5625H32.1562V26.95V22.9688H47.4688V26.95Z" fill="#704639"/>
<path d="M47.4688 18.375H32.1562V22.9688H47.4688V18.375Z" fill="#8D5C4D"/>
<path d="M41.3438 1.53125H52.0625C52.0625 13.7812 47.4688 18.375 47.4688 18.375H32.1562C32.1562 18.375 27.5625 13.7812 27.5625 1.53125H32.1562L36.75 6.125L41.3438 1.53125Z" fill="#BF947A"/>
<path d="M43.4875 15.3125C41.0764 15.3243 38.7326 14.5181 36.8388 13.0257C34.9451 11.5333 33.6134 9.44285 33.0612 7.09581C32.6595 5.30411 32.3959 3.48425 32.2726 1.65222L32.1562 1.53125H27.5625C27.5625 13.7812 32.1562 18.375 32.1562 18.375H47.4688C48.2679 17.458 48.9241 16.4255 49.415 15.3125H43.4875Z" fill="#B2876D"/>
<path d="M70.4376 50.5312C70.4376 50.5312 65.8438 44.4062 61.2501 44.4062C56.6563 44.4062 56.6563 47.4687 56.6563 47.4687L58.1876 49C57.3277 49.4409 56.5949 50.0945 56.0589 50.8985C55.5229 51.7026 55.2014 52.6304 55.1251 53.5937H50.5313V62.7812H53.5938V96.4687H9.11099C7.11167 96.4676 5.19366 95.677 3.7742 94.269C2.35474 92.861 1.54866 90.9495 1.5313 88.9503C1.50068 85.7806 2.52662 83.0549 4.77755 81.8299C5.67655 81.2999 6.41749 80.5391 6.92364 79.6264C7.42979 78.7137 7.68274 77.6823 7.6563 76.639V58.1875C7.65684 50.9904 10.071 44.0014 14.5126 38.3383C18.9542 32.6753 25.1666 28.6654 32.1563 26.95V27.5625H47.4688V26.95C52.9651 28.2969 58.0086 31.0704 62.0899 34.9904C66.1712 38.9104 69.1458 43.838 70.7132 49.2756C70.5284 49.6682 70.4342 50.0973 70.4376 50.5312Z" fill="#BF947A"/>
<path d="M7.6563 88.9503C7.62568 85.7806 8.65162 83.0549 10.9026 81.8299C11.8015 81.2999 12.5425 80.5391 13.0486 79.6264C13.5548 78.7137 13.8077 77.6823 13.7813 76.639V58.1875C13.7825 51.3772 15.9446 44.7429 19.9562 39.2396C23.9679 33.7362 29.6222 29.6477 36.1054 27.5625H32.1563V26.95C25.1666 28.6654 18.9542 32.6753 14.5126 38.3383C10.071 44.0014 7.65684 50.9904 7.6563 58.1875V76.639C7.68274 77.6823 7.42979 78.7137 6.92364 79.6264C6.41749 80.5391 5.67655 81.2999 4.77755 81.8299C2.52662 83.0549 1.50068 85.7806 1.5313 88.9503C1.54866 90.9495 2.35474 92.861 3.7742 94.269C5.19366 95.677 7.11167 96.4676 9.11099 96.4687H15.236C13.2367 96.4676 11.3187 95.677 9.8992 94.269C8.47974 92.861 7.67366 90.9495 7.6563 88.9503Z" fill="#B2876D"/>
<path d="M58.0818 45.1719C57.1655 44.6999 56.1553 44.4383 55.125 44.4062C50.5312 44.4063 50.5312 47.4688 50.5312 47.4688L52.0625 49C51.2026 49.441 50.4699 50.0946 49.9338 50.8986C49.3978 51.7026 49.0763 52.6304 49 53.5938H44.4062V62.7812H47.4688V96.4688H53.5938V62.7812H50.5312V53.5938H55.125C55.2013 52.6304 55.5228 51.7026 56.0588 50.8986C56.5949 50.0946 57.3276 49.441 58.1875 49L56.6562 47.4688C56.6934 46.9999 56.8422 46.5468 57.0902 46.1473C57.3382 45.7477 57.6782 45.4132 58.0818 45.1719Z" fill="#A37862"/>
<path d="M67.375 53.5938V62.7812H53.5938H50.5312V53.5938H55.125H67.375Z" fill="#90262A"/>
<path d="M76.5625 50.5312C76.5625 50.5312 81.1562 44.4062 85.75 44.4062C90.3438 44.4062 90.3438 47.4688 90.3438 47.4688L88.8125 49C89.6724 49.441 90.4051 50.0946 90.9412 50.8986C91.4772 51.7026 91.7987 52.6304 91.875 53.5938H76.5625V50.5312Z" fill="#FA732D"/>
<path d="M70.4375 53.5938H55.125C55.2013 52.6304 55.5228 51.7026 56.0588 50.8986C56.5949 50.0946 57.3276 49.441 58.1875 49L56.6562 47.4688C56.6562 47.4688 56.6562 44.4062 61.25 44.4062C65.8438 44.4062 70.4375 50.5312 70.4375 50.5312V53.5938Z" fill="#FA732D"/>
<path d="M70.7132 49.2756C71.0027 48.6403 71.5005 48.1229 72.1243 47.8092C72.748 47.4956 73.4602 47.4045 74.1429 47.551C74.8255 47.6975 75.4376 48.0729 75.8776 48.6149C76.3177 49.157 76.5594 49.8331 76.5626 50.5313V53.5938H70.4376V50.5313C70.4342 50.0973 70.5284 49.6682 70.7132 49.2756Z" fill="#FC9942"/>
<path d="M76.5625 62.7812H70.4375V96.4688H76.5625V62.7812Z" fill="#FC9942"/>
<path d="M79.625 53.5938V62.7812H76.5625H70.4375H67.375V53.5938H70.4375H76.5625H79.625Z" fill="#FFC170"/>
<path d="M79.625 59.7188V62.7812H76.5625H70.4375H67.375V59.7188H70.4375H76.5625H79.625Z" fill="#FFAC5A"/>
<path d="M96.4688 53.5938V62.7812H93.4062H79.625V53.5938H91.875H96.4688Z" fill="#90262A"/>
<path d="M96.4688 59.7188V62.7812H93.4062H79.625V59.7188H91.875H96.4688Z" fill="#7C232A"/>
<path d="M67.375 59.7188V62.7812H64.3125H50.5312V59.7188H62.7812H67.375Z" fill="#7C232A"/>
<path d="M79.625 62.7812H93.4062V96.4688H76.5625V62.7812H79.625Z" fill="#DC464F"/>
<path d="M70.4375 62.7812V96.4688H53.5938V62.7812H67.375H70.4375Z" fill="#DC464F"/>
<path d="M56.6562 87.2812V62.7812H53.5938V96.4688H70.4375V93.4062H62.7812C61.1568 93.4062 59.5989 92.7609 58.4502 91.6123C57.3016 90.4636 56.6562 88.9057 56.6562 87.2812Z" fill="#AA3949"/>
<path d="M70.4375 62.7812H53.5938V65.8438H70.4375V62.7812Z" fill="#AA3949"/>
<path d="M93.4062 62.7812H76.5625V65.8438H93.4062V62.7812Z" fill="#AA3949"/>
<path d="M93.4062 93.4062H76.5625V96.4688H93.4062V93.4062Z" fill="#AA3949"/>
<path d="M76.5625 62.7812H70.4375V65.8438H76.5625V62.7812Z" fill="#FA732D"/>
<path d="M76.5625 93.4062H70.4375V96.4688H76.5625V93.4062Z" fill="#FA732D"/>
<path d="M24.281 39.5935L22.1159 37.4283C18.9779 40.5494 16.4902 44.2619 14.7968 48.3509C13.1033 52.4399 12.2377 56.8242 12.25 61.25H15.3125C15.3013 57.2265 16.0881 53.2408 17.6276 49.5234C19.167 45.8061 21.4285 42.431 24.281 39.5935Z" fill="#CFA388"/>
<path d="M15.3125 64.3125H12.25V67.375H15.3125V64.3125Z" fill="#CFA388"/>
<path d="M10.7188 88.8125H7.65625V91.875H10.7188V88.8125Z" fill="#A37862"/>
<path d="M50.5312 88.8125H13.7812V91.875H50.5312V88.8125Z" fill="#A37862"/>
<path d="M88.8125 22.9688H85.75V30.625H88.8125V22.9688Z" fill="#7CC0DD"/>
<path d="M88.8125 33.6875H85.75V41.3438H88.8125V33.6875Z" fill="#7CC0DD"/>
<path d="M96.4688 30.625H88.8125V33.6875H96.4688V30.625Z" fill="#7CC0DD"/>
<path d="M85.75 30.625H78.0938V33.6875H85.75V30.625Z" fill="#7CC0DD"/>
<path d="M92.3238 24.948L89.2617 28.01L91.4272 30.1755L94.4893 27.1135L92.3238 24.948Z" fill="#7CC0DD"/>
<path d="M83.1363 34.136L80.0742 37.198L82.2397 39.3635L85.3018 36.3015L83.1363 34.136Z" fill="#7CC0DD"/>
<path d="M91.4267 34.1365L89.2612 36.302L92.3233 39.364L94.4888 37.1985L91.4267 34.1365Z" fill="#7CC0DD"/>
<path d="M82.2388 24.949L80.0732 27.1145L83.1353 30.1765L85.3008 28.011L82.2388 24.949Z" fill="#7CC0DD"/>
<path d="M67.375 1.53125H64.3125V9.1875H67.375V1.53125Z" fill="#7CC0DD"/>
<path d="M67.375 12.25H64.3125V19.9062H67.375V12.25Z" fill="#7CC0DD"/>
<path d="M75.0312 9.1875H67.375V12.25H75.0312V9.1875Z" fill="#7CC0DD"/>
<path d="M64.3125 9.1875H56.6562V12.25H64.3125V9.1875Z" fill="#7CC0DD"/>
<path d="M70.8864 3.51047L67.8243 6.57251L69.9899 8.73802L73.0519 5.67598L70.8864 3.51047Z" fill="#7CC0DD"/>
<path d="M61.6989 12.6985L58.6368 15.7605L60.8024 17.926L63.8644 14.864L61.6989 12.6985Z" fill="#7CC0DD"/>
<path d="M69.9892 12.699L67.8237 14.8645L70.8858 17.9265L73.0513 15.761L69.9892 12.699Z" fill="#7CC0DD"/>
<path d="M60.8014 3.51149L58.6359 5.677L61.6979 8.73904L63.8634 6.57353L60.8014 3.51149Z" fill="#7CC0DD"/>
<path d="M12.25 12.25H9.1875V19.9062H12.25V12.25Z" fill="#7CC0DD"/>
<path d="M12.25 22.9688H9.1875V30.625H12.25V22.9688Z" fill="#7CC0DD"/>
<path d="M19.9062 19.9062H12.25V22.9688H19.9062V19.9062Z" fill="#7CC0DD"/>
<path d="M9.1875 19.9062H1.53125V22.9688H9.1875V19.9062Z" fill="#7CC0DD"/>
<path d="M15.7611 14.2301L12.6991 17.2921L14.8646 19.4576L17.9266 16.3956L15.7611 14.2301Z" fill="#7CC0DD"/>
<path d="M6.57363 23.4181L3.5116 26.4801L5.67711 28.6456L8.73915 25.5836L6.57363 23.4181Z" fill="#7CC0DD"/>
<path d="M14.8641 23.4171L12.6986 25.5826L15.7606 28.6447L17.9262 26.4792L14.8641 23.4171Z" fill="#7CC0DD"/>
<path d="M5.67613 14.2296L3.51062 16.3951L6.57266 19.4572L8.73817 17.2917L5.67613 14.2296Z" fill="#7CC0DD"/>
</svg>
