<svg width="98" height="98" viewBox="0 0 98 98" fill="none" xmlns="http://www.w3.org/2000/svg">
<path d="M30.625 44.59V45.9375H24.5V44.59V38.2812H27.5625H30.625V44.59Z" fill="#636978"/>
<path d="M73.5 7.84V9.1875H67.375V7.84V1.53125H73.5V7.84Z" fill="#636978"/>
<path d="M48.3569 47.4688H92.5181C91.476 49.1471 90.2428 50.6989 88.8431 52.0931L88.8125 52.0625H52.0625L52.0319 52.0931C50.6322 50.6989 49.399 49.1471 48.3569 47.4688Z" fill="#F2F6FC"/>
<path d="M52.9506 47.4688H48.3569C49.399 49.1471 50.6322 50.6989 52.0319 52.0931L52.0625 52.0625H56.5981C55.21 50.6763 53.9861 49.1349 52.9506 47.4688Z" fill="#CDD2E1"/>
<path d="M88.8125 52.0625L88.8434 52.0934L88.8713 52.0625H88.8125Z" fill="#F2F6FC"/>
<path d="M93.4062 21.4375H47.4688C48.3346 19.794 49.3824 18.2531 50.5925 16.8438H90.2825C91.4926 18.2531 92.5404 19.794 93.4062 21.4375Z" fill="#F2F6FC"/>
<path d="M50.5925 16.8438C49.3824 18.2531 48.3346 19.794 47.4688 21.4375H52.0625C52.9283 19.794 53.9762 18.2531 55.1863 16.8438H50.5925Z" fill="#CDD2E1"/>
<path d="M88.8125 52.0625L88.8431 52.0931C83.9614 56.9742 77.3408 59.7163 70.4375 59.7163C63.5342 59.7163 56.9136 56.9742 52.0319 52.0931L52.0625 52.0625H88.8125Z" fill="#FC9942"/>
<path d="M56.6256 52.0931L56.6563 52.0625H52.0625L52.0319 52.0931C54.4452 54.5154 57.3139 56.4362 60.4728 57.745C63.6316 59.0537 67.0182 59.7245 70.4375 59.7188C71.2138 59.7188 71.9764 59.6697 72.7344 59.6024C66.6474 59.0769 60.9419 56.4173 56.6256 52.0931Z" fill="#FA732D"/>
<path d="M67.375 9.18747H73.5V7.83997C80.0328 8.60662 86.0311 11.8246 90.2825 16.8437H50.5925C54.8439 11.8246 60.8422 8.60662 67.375 7.83997V9.18747Z" fill="#FC9942"/>
<path d="M78.0938 8.81537C76.5954 8.35113 75.0577 8.02464 73.5 7.83997V9.18747H78.0938V8.81537Z" fill="#FA732D"/>
<path d="M67.375 8.81537V7.83997C60.8422 8.60662 54.8439 11.8246 50.5925 16.8437H55.1862C58.4005 13.0601 62.6296 10.2744 67.375 8.81537Z" fill="#FA732D"/>
<path d="M93.4062 21.4375C95.5585 25.4719 96.6096 30.0023 96.4537 34.5722C96.2978 39.1422 94.9404 43.5904 92.5181 47.4688H48.3569C45.9346 43.5904 44.5772 39.1422 44.4213 34.5722C44.2654 30.0023 45.3165 25.4719 47.4687 21.4375H93.4062Z" fill="#FFC170"/>
<path d="M52.0625 21.4375H47.4687C45.3165 25.4719 44.2654 30.0023 44.4213 34.5722C44.5772 39.1422 45.9346 43.5904 48.3569 47.4688H52.9506C50.5284 43.5904 49.1709 39.1422 49.015 34.5722C48.8591 30.0023 49.9102 25.4719 52.0625 21.4375Z" fill="#FC9942"/>
<path d="M32.1562 67.375L38.2812 75.0312H30.625H24.5H16.8438L21.4375 67.375H32.1562Z" fill="#74B580"/>
<path d="M30.625 59.7188L35.2188 67.375H32.1562H21.4375H19.9062L24.5 59.7188H30.625Z" fill="#9ADB86"/>
<path d="M33.6875 59.7188H30.625H24.5H21.4375L27.5625 53.5938L33.6875 59.7188Z" fill="#D5FFAB"/>
<path d="M30.625 75.0312H24.5V81.1562H30.625V75.0312Z" fill="#B2876D"/>
<path d="M36.75 90.3438L41.3437 85.75L45.1872 89.5934C40.3822 94.014 34.0916 96.4675 27.5625 96.4675C21.0334 96.4675 14.7427 94.014 9.93781 89.5934L13.7812 85.75L18.375 90.3438L22.9687 85.75L27.5625 90.3438L32.1562 85.75L36.75 90.3438Z" fill="#98CBE8"/>
<path d="M32.1566 85.7502L29.0946 88.8123L30.6256 90.3433L33.6877 87.2812L32.1566 85.7502Z" fill="#89B9CE"/>
<path d="M41.3436 85.7508L38.2816 88.8129L39.8126 90.3439L42.8746 87.2818L41.3436 85.7508Z" fill="#89B9CE"/>
<path d="M22.9681 85.7497L19.9061 88.8118L21.4371 90.3428L24.4992 87.2808L22.9681 85.7497Z" fill="#89B9CE"/>
<path d="M13.0003 89.5934L15.3125 87.2812L13.7812 85.75L9.93781 89.5934C14.7353 94.026 21.0307 96.4818 27.5625 96.4688C28.0785 96.4688 28.5838 96.4259 29.0937 96.3952C23.103 96.0622 17.414 93.6578 13.0003 89.5934Z" fill="#89B9CE"/>
<path d="M24.5 45.9375H30.625V44.59C35.569 45.1765 40.2412 47.1685 44.0874 50.3297C47.9336 53.491 50.7926 57.689 52.3254 62.4259C53.8582 67.1628 54.0004 72.2398 52.7352 77.0551C51.47 81.8703 48.8504 86.2218 45.1872 89.5934L41.3437 85.75L36.75 90.3437L32.1562 85.75L27.5625 90.3437L22.9687 85.75L18.375 90.3437L13.7812 85.75L9.93781 89.5934C6.27456 86.2218 3.65503 81.8703 2.38983 77.0551C1.12464 72.2398 1.26685 67.1628 2.7996 62.4259C4.33236 57.689 7.19136 53.491 11.0376 50.3297C14.8838 47.1685 19.556 45.1765 24.5 44.59V45.9375ZM38.2812 75.0312L32.1562 67.375H35.2187L30.625 59.7187H33.6875L27.5625 53.5937L21.4375 59.7187H24.5L19.9062 67.375H21.4375L16.8437 75.0312H24.5V81.1562H30.625V75.0312H38.2812Z" fill="#DC464F"/>
<path d="M33.6875 75.0312H30.625V81.1562H33.6875V75.0312Z" fill="#AA3949"/>
<path d="M33.6875 59.7188H30.625L35.2188 67.375H38.2812L33.6875 59.7188Z" fill="#AA3949"/>
<path d="M30.625 53.5938L29.0938 55.125L33.6875 59.7188H36.75L30.625 53.5938Z" fill="#AA3949"/>
<path d="M32.1562 67.375L38.2812 75.0312H41.3438L35.2188 67.375H32.1562Z" fill="#AA3949"/>
<path d="M33.6875 45.1596C32.679 44.9084 31.6563 44.7182 30.625 44.59V45.9375H33.6875V45.1596Z" fill="#AA3949"/>
<path d="M35.2183 85.7497L33.6873 87.2808L36.7493 90.3428L38.2804 88.8118L35.2183 85.7497Z" fill="#AA3949"/>
<path d="M4.59375 70.4375C4.5961 64.602 6.56026 58.9368 10.1706 54.3522C13.7809 49.7677 18.8277 46.53 24.5 45.1596V44.59C19.556 45.1765 14.8838 47.1685 11.0376 50.3297C7.19136 53.491 4.33236 57.689 2.7996 62.4259C1.26685 67.1628 1.12464 72.2398 2.38983 77.0551C3.65503 81.8703 6.27456 86.2218 9.93781 89.5934L11.4844 88.0468C7.04838 83.2564 4.58703 76.9663 4.59375 70.4375Z" fill="#AA3949"/>
<path d="M44.4062 85.75L42.875 87.2812L45.1872 89.5934C45.7185 89.105 46.2162 88.5797 46.7047 88.0484L44.4062 85.75Z" fill="#AA3949"/>
<path d="M26.0314 85.7507L24.5004 87.2817L27.5624 90.3438L29.0934 88.8128L26.0314 85.7507Z" fill="#AA3949"/>
<path d="M16.8444 85.7502L15.3134 87.2812L18.3755 90.3433L19.9065 88.8123L16.8444 85.7502Z" fill="#AA3949"/>
<path d="M68.2692 32.1562H61.25L65.3966 35.7715L64.3125 42.875L70.4375 38.0056V26.0312L68.2692 32.1562Z" fill="#CDD2E1"/>
<path d="M79.625 32.1562H72.6058L70.4375 26.0312V38.0056L76.5625 42.875L75.4784 35.7715L79.625 32.1562Z" fill="#F2F6FC"/>
<path d="M29.0938 1.53125H26.0312V38.2812H29.0938V1.53125Z" fill="#98CBE8"/>
<path d="M34.1591 50.0352L33.2159 52.9445C35.9834 53.8426 38.4988 55.3834 40.5562 57.4408C42.6135 59.4982 44.1544 62.0136 45.0524 64.7811L47.9618 63.8378C46.9141 60.6109 45.1171 57.6779 42.7181 55.2789C40.319 52.8798 37.386 51.0829 34.1591 50.0352Z" fill="#AA3949"/>
<path d="M48.7473 67.1392L45.7201 67.6108C45.8651 68.546 45.9378 69.4911 45.9375 70.4375H49C49 69.3332 48.9156 68.2305 48.7473 67.1392Z" fill="#AA3949"/>
<path d="M88.8125 75.0312H85.75V82.6875H88.8125V75.0312Z" fill="#98CBE8"/>
<path d="M88.8125 85.75H85.75V93.4062H88.8125V85.75Z" fill="#98CBE8"/>
<path d="M96.4688 82.6875H88.8125V85.75H96.4688V82.6875Z" fill="#98CBE8"/>
<path d="M85.75 82.6875H78.0938V85.75H85.75V82.6875Z" fill="#98CBE8"/>
<path d="M92.3232 77.0114L89.2612 80.0735L91.4267 82.239L94.4887 79.177L92.3232 77.0114Z" fill="#98CBE8"/>
<path d="M83.1357 86.1994L80.0737 89.2615L82.2392 91.427L85.3012 88.3649L83.1357 86.1994Z" fill="#98CBE8"/>
<path d="M91.4261 86.1984L89.2606 88.3639L92.3227 91.4259L94.4882 89.2604L91.4261 86.1984Z" fill="#98CBE8"/>
<path d="M82.2397 77.0109L80.0742 79.1764L83.1363 82.2384L85.3018 80.0729L82.2397 77.0109Z" fill="#98CBE8"/>
<path d="M12.25 9.1875H9.1875V16.8438H12.25V9.1875Z" fill="#98CBE8"/>
<path d="M12.25 19.9062H9.1875V27.5625H12.25V19.9062Z" fill="#98CBE8"/>
<path d="M19.9062 16.8438H12.25V19.9062H19.9062V16.8438Z" fill="#98CBE8"/>
<path d="M9.1875 16.8438H1.53125V19.9062H9.1875V16.8438Z" fill="#98CBE8"/>
<path d="M15.7608 11.1673L12.6988 14.2294L14.8643 16.3949L17.9263 13.3328L15.7608 11.1673Z" fill="#98CBE8"/>
<path d="M6.5733 20.3552L3.51126 23.4172L5.67678 25.5828L8.73881 22.5207L6.5733 20.3552Z" fill="#98CBE8"/>
<path d="M14.8637 20.3543L12.6982 22.5198L15.7602 25.5818L17.9258 23.4163L14.8637 20.3543Z" fill="#98CBE8"/>
<path d="M5.67734 11.1668L3.51183 13.3323L6.57386 16.3943L8.73938 14.2288L5.67734 11.1668Z" fill="#98CBE8"/>
<path d="M70.4375 70.4375V67.375H67.375V64.3125H64.3125V67.375H61.25V70.4375H64.3125V73.5H67.375V70.4375H70.4375Z" fill="#98CBE8"/>
<path d="M87.2812 65.8438H84.2188V68.9062H87.2812V65.8438Z" fill="#FC9942"/>
<path d="M71.9688 81.1562H68.9062V84.2188H71.9688V81.1562Z" fill="#FC9942"/>
<path d="M56.6562 90.3438H53.5938V93.4062H56.6562V90.3438Z" fill="#FC9942"/>
<path d="M55.125 3.0625H52.0625V6.125H55.125V3.0625Z" fill="#FC9942"/>
<path d="M42.875 10.7188H39.8125V13.7812H42.875V10.7188Z" fill="#FC9942"/>
<path d="M16.8438 35.2188H13.7812V38.2812H16.8438V35.2188Z" fill="#FC9942"/>
</svg>
