<svg width="111" height="108" viewBox="0 0 111 108" fill="none" xmlns="http://www.w3.org/2000/svg">
<path d="M109.266 50.625H99.0692L104.186 45.6469L100.507 42.0677L91.9219 50.4208L91.712 50.625H85.1942L90.3106 45.6469L86.632 42.0677L78.0469 50.4208L77.837 50.625H61.879L70.6584 37.6144L70.9498 37.5553L82.8372 35.1574L81.781 30.1995L74.6978 31.6288L78.2741 26.3284L78.5655 26.271L90.4529 23.8714L89.3966 18.9152L82.3117 20.3445L87.86 12.123L82.0602 8.41727L76.512 16.6405L75.0429 9.74702L69.9491 10.7747L72.4136 22.3408L72.4743 22.6243L68.898 27.9248L67.429 21.0313L62.3334 22.059L64.798 33.6268L64.8587 33.9103L55.4757 47.8153L46.0928 33.9103L46.1535 33.6268L48.618 22.059L43.5241 21.0313L42.0551 27.9248L38.4788 22.6243L38.5378 22.3408L41.0041 10.7747L35.9085 9.74702L34.4395 16.6405L28.8912 8.41727L23.0932 12.123L28.6397 20.3445L21.5565 18.9152L20.5003 23.8714L32.3877 26.271L32.6791 26.3284L36.2554 31.6288L29.1705 30.1995L28.1142 35.1574L40.0016 37.5553L40.293 37.6144L49.0724 50.625H33.0763L32.8664 50.4208L24.2812 42.0677L20.6026 45.6469L25.7173 50.625H19.2013L18.9914 50.4208L10.4062 42.0677L6.72764 45.6469L11.8423 50.625H1.73438V57.375H11.8423L6.72764 62.3531L10.4062 65.9323L18.9914 57.5792L19.2013 57.375H25.7173L20.6026 62.3531L24.2812 65.9323L32.8664 57.5792L33.0763 57.375H49.0256L40.293 70.3148L40.0016 70.3738L28.1142 72.7718L29.1705 77.7296L36.2554 76.3003L32.6791 81.6008L32.3877 81.6581L20.5003 84.0578L21.5565 89.014L28.6397 87.5846L23.0446 95.877L28.8444 99.5828L34.4395 91.2887L35.9085 98.1821L41.0041 97.1544L38.5378 85.5883L38.4788 85.3048L42.0551 80.0044L43.5241 86.8978L48.618 85.8701L46.1535 74.3023L46.0928 74.0188L55.4757 60.1138L64.8587 74.0188L64.798 74.3023L62.3334 85.8701L67.429 86.8978L68.898 80.0044L72.4743 85.3048L72.4136 85.5883L69.9491 97.1544L75.0429 98.1821L76.512 91.2887L82.1088 99.5828L87.9068 95.877L82.3117 87.5846L89.3966 89.014L90.4529 84.0578L78.5655 81.6581L78.2741 81.6008L74.6961 76.3003L81.781 77.7296L82.8372 72.7718L70.9498 70.3738L70.6584 70.3148L61.9276 57.375H77.837L78.0469 57.5792L86.632 65.9323L90.3106 62.3531L85.1942 57.375H91.712L91.9219 57.5792L100.507 65.9323L104.186 62.3531L99.0692 57.375H109.266V50.625Z" fill="#9ADAE5"/>
<path d="M82.1105 101.27C81.8226 101.271 81.5392 101.201 81.2858 101.068C81.0323 100.935 80.8169 100.743 80.6588 100.509L77.3635 95.6154L76.7461 98.5179C76.6998 98.735 76.61 98.9411 76.4819 99.1245C76.3537 99.3078 76.1897 99.4648 75.9991 99.5864C75.8086 99.708 75.5953 99.7919 75.3714 99.8332C75.1475 99.8746 74.9174 99.8726 74.6943 99.8274L69.6005 98.7997C69.1502 98.7088 68.7554 98.4476 68.5031 98.0736C68.2507 97.6995 68.1613 97.2433 68.2546 96.8051L70.6342 85.6389L69.7496 84.3294L69.127 87.2437C69.031 87.6805 68.762 88.0629 68.3783 88.308C67.9946 88.5531 67.527 88.6413 67.077 88.5532L61.9814 87.5256C61.5311 87.4346 61.1363 87.1734 60.8839 86.7994C60.6316 86.4253 60.5422 85.9691 60.6355 85.5309L63.015 74.3631L55.4757 63.1918L47.9381 74.3631L50.3177 85.5309C50.3639 85.748 50.3656 85.9718 50.3229 86.1895C50.2801 86.4073 50.1937 86.6147 50.0686 86.7999C49.9434 86.9851 49.782 87.1445 49.5935 87.2691C49.405 87.3936 49.1932 87.4807 48.9701 87.5256L43.8762 88.5532C43.6531 88.5984 43.4231 88.6004 43.1992 88.5591C42.9753 88.5177 42.762 88.4338 42.5714 88.3122C42.3809 88.1906 42.2168 88.0336 42.0887 87.8503C41.9605 87.667 41.8707 87.4609 41.8245 87.2437L41.207 84.3396L40.3225 85.6491L42.702 96.8152C42.7953 97.2534 42.706 97.7097 42.4536 98.0837C42.2012 98.4577 41.8065 98.7189 41.3562 98.8099L36.2606 99.8376C35.8103 99.9283 35.3413 99.8414 34.9569 99.5958C34.5725 99.3502 34.304 98.9662 34.2105 98.5281L33.5914 95.6256L30.2961 100.519C30.171 100.705 30.0097 100.864 29.8213 100.989C29.633 101.113 29.4212 101.201 29.1981 101.246C28.9751 101.291 28.7451 101.292 28.5213 101.251C28.2975 101.209 28.0844 101.125 27.894 101.004L22.0942 97.2911C21.7101 97.0455 21.4419 96.6615 21.3486 96.2236C21.2552 95.7857 21.3444 95.3296 21.5964 94.9556L24.8918 90.0619L21.9069 90.6626C21.6838 90.7078 21.4537 90.7098 21.2298 90.6684C21.006 90.6271 20.7927 90.5432 20.6021 90.4216C20.4116 90.3 20.2475 90.143 20.1193 89.9597C19.9912 89.7763 19.9014 89.5702 19.8551 89.3531L18.7989 84.3969C18.7056 83.9588 18.795 83.5025 19.0474 83.1285C19.2997 82.7544 19.6945 82.4932 20.1448 82.4023L31.6211 80.0871L32.5057 78.7759L29.5208 79.3783C29.0705 79.4691 28.6015 79.3821 28.2171 79.1366C27.8327 78.891 27.5642 78.5069 27.4708 78.0688L26.4128 73.1109C26.3666 72.8939 26.3649 72.6701 26.4076 72.4523C26.4503 72.2346 26.5368 72.0272 26.6619 71.842C26.787 71.6568 26.9485 71.4973 27.137 71.3728C27.3254 71.2483 27.5373 71.1611 27.7604 71.1163L39.2368 68.8011L45.8118 59.0625H33.7943L25.5075 67.1254C25.1823 67.4419 24.7412 67.6197 24.2812 67.6198C23.8213 67.6197 23.3802 67.4419 23.055 67.1254L19.3764 63.5462C19.0513 63.2297 18.8686 62.8006 18.8686 62.3531C18.8686 61.9057 19.0513 61.4765 19.3764 61.1601L21.5305 59.0625H19.9193L11.6325 67.1254C11.3073 67.4419 10.8662 67.6197 10.4062 67.6198C9.9463 67.6197 9.50523 67.4419 9.18005 67.1254L5.50144 63.5462C5.17629 63.2297 4.99364 62.8006 4.99364 62.3531C4.99364 61.9057 5.17629 61.4765 5.50144 61.1601L7.65553 59.0625H1.73438C1.27439 59.0625 0.833245 58.8847 0.507987 58.5682C0.182728 58.2518 0 57.8226 0 57.375V50.625C0 50.1774 0.182728 49.7482 0.507987 49.4318C0.833245 49.1153 1.27439 48.9375 1.73438 48.9375H7.65553L5.50144 46.8399C5.17629 46.5235 4.99364 46.0943 4.99364 45.6469C4.99364 45.1994 5.17629 44.7703 5.50144 44.4538L9.18005 40.8746C9.51142 40.5697 9.95018 40.3999 10.4062 40.3999C10.8623 40.3999 11.3011 40.5697 11.6325 40.8746L19.9193 48.9375H21.5305L19.3764 46.8399C19.0513 46.5235 18.8686 46.0943 18.8686 45.6469C18.8686 45.1994 19.0513 44.7703 19.3764 44.4538L23.055 40.8746C23.3864 40.5697 23.8252 40.3999 24.2812 40.3999C24.7373 40.3999 25.1761 40.5697 25.5075 40.8746L33.7943 48.9375H45.8586L39.2385 39.1247L27.7621 36.8094C27.539 36.7646 27.3272 36.6774 27.1387 36.5529C26.9502 36.4284 26.7888 36.269 26.6636 36.0838C26.5385 35.8985 26.4521 35.6911 26.4093 35.4734C26.3666 35.2557 26.3684 35.0319 26.4145 34.8148L27.4725 29.8569C27.566 29.4188 27.8344 29.0348 28.2188 28.7892C28.6033 28.5436 29.0722 28.4567 29.5225 28.5474L32.5074 29.1499L31.6229 27.8387L20.1465 25.5234C19.6962 25.4325 19.3015 25.1713 19.0491 24.7973C18.7967 24.4232 18.7073 23.967 18.8006 23.5288L19.8569 18.5726C19.9031 18.3555 19.9929 18.1494 20.1211 17.9661C20.2492 17.7828 20.4133 17.6258 20.6038 17.5042C20.7944 17.3826 21.0077 17.2987 21.2316 17.2573C21.4555 17.216 21.6855 17.2179 21.9086 17.2631L24.8935 17.8639L21.6433 13.0478C21.3912 12.6738 21.3021 12.2177 21.3954 11.7798C21.4887 11.3419 21.7569 10.9579 22.141 10.7123L27.939 6.99975C28.1294 6.87806 28.3426 6.79405 28.5664 6.75253C28.7902 6.71101 29.0201 6.71279 29.2432 6.75776C29.4663 6.80273 29.6781 6.89003 29.8664 7.01465C30.0548 7.13927 30.2161 7.29878 30.3412 7.48407L33.5914 12.3002L34.2105 9.39769C34.3067 8.96175 34.5763 8.58058 34.9605 8.33743C35.3446 8.09428 35.812 8.00892 36.2606 8.1L41.3562 9.12769C41.8065 9.21862 42.2012 9.47982 42.4536 9.85386C42.706 10.2279 42.7953 10.6842 42.702 11.1223L40.3225 22.2885L41.207 23.598L41.8245 20.6938C41.8707 20.4767 41.9605 20.2706 42.0887 20.0873C42.2168 19.9039 42.3809 19.747 42.5714 19.6254C42.762 19.5038 42.9753 19.4199 43.1992 19.3785C43.4231 19.3372 43.6531 19.3391 43.8762 19.3843L48.9701 20.412C49.1932 20.4568 49.405 20.544 49.5935 20.6685C49.782 20.793 49.9434 20.9524 50.0686 21.1377C50.1937 21.3229 50.2801 21.5303 50.3229 21.748C50.3656 21.9658 50.3639 22.1896 50.3177 22.4066L47.9381 33.5694L55.4757 44.7407L63.015 33.5694L60.6355 22.4016C60.5422 21.9634 60.6316 21.5072 60.8839 21.1331C61.1363 20.7591 61.5311 20.4979 61.9814 20.4069L67.077 19.3793C67.5273 19.2885 67.9962 19.3754 68.3806 19.621C68.7651 19.8666 69.0335 20.2506 69.127 20.6888L69.7462 23.5929L70.6307 22.2834L68.2511 11.1173C68.1578 10.6791 68.2472 10.2228 68.4996 9.8488C68.752 9.47476 69.1467 9.21355 69.597 9.12263L74.6909 8.1C74.914 8.05481 75.144 8.05284 75.3679 8.0942C75.5918 8.13556 75.8051 8.21945 75.9957 8.34106C76.1862 8.46267 76.3502 8.61963 76.4784 8.80296C76.6066 8.98629 76.6964 9.1924 76.7426 9.4095L77.3601 12.312L80.612 7.49588C80.8645 7.12214 81.2591 6.86121 81.7092 6.7704C82.1593 6.67958 82.628 6.76633 83.0124 7.01157L88.8121 10.7241C89.1963 10.9697 89.4644 11.3537 89.5578 11.7916C89.6511 12.2295 89.562 12.6856 89.3099 13.0596L86.0597 17.8639L89.0445 17.2631C89.4949 17.1724 89.9638 17.2593 90.3482 17.5049C90.7327 17.7504 91.0011 18.1345 91.0946 18.5726L92.1508 23.5305C92.2435 23.9686 92.1537 24.4247 91.901 24.7984C91.6483 25.1721 91.2534 25.4329 90.8032 25.5234L79.3286 27.8438L78.444 29.1549L81.4289 28.5525C81.6521 28.5073 81.8823 28.5054 82.1063 28.5469C82.3303 28.5884 82.5436 28.6724 82.7342 28.7942C82.9248 28.916 83.0888 29.0731 83.2169 29.2566C83.345 29.4401 83.4346 29.6464 83.4807 29.8637L84.5352 34.8199C84.6285 35.258 84.5391 35.7143 84.2867 36.0883C84.0343 36.4624 83.6396 36.7236 83.1893 36.8145L71.7147 39.1297L65.0911 48.9375H77.119L85.4041 40.8746C85.7293 40.5583 86.1704 40.3806 86.6303 40.3806C87.0902 40.3806 87.5312 40.5583 87.8565 40.8746L91.5368 44.4538C91.862 44.7703 92.0446 45.1994 92.0446 45.6469C92.0446 46.0943 91.862 46.5235 91.5368 46.8399L89.381 48.9375H90.994L99.2791 40.8746C99.6043 40.5583 100.045 40.3806 100.505 40.3806C100.965 40.3806 101.406 40.5583 101.731 40.8746L105.412 44.4538C105.737 44.7703 105.92 45.1994 105.92 45.6469C105.92 46.0943 105.737 46.5235 105.412 46.8399L103.256 48.9375H109.266C109.726 48.9375 110.167 49.1153 110.492 49.4318C110.817 49.7482 111 50.1774 111 50.625V57.375C111 57.8226 110.817 58.2518 110.492 58.5682C110.167 58.8847 109.726 59.0625 109.266 59.0625H103.256L105.412 61.1601C105.737 61.4765 105.92 61.9057 105.92 62.3531C105.92 62.8006 105.737 63.2297 105.412 63.5462L101.731 67.1254C101.406 67.4417 100.965 67.6194 100.505 67.6194C100.045 67.6194 99.6043 67.4417 99.2791 67.1254L90.994 59.0625H89.381L91.5368 61.1601C91.862 61.4765 92.0446 61.9057 92.0446 62.3531C92.0446 62.8006 91.862 63.2297 91.5368 63.5462L87.8565 67.1254C87.5312 67.4417 87.0902 67.6194 86.6303 67.6194C86.1704 67.6194 85.7293 67.4417 85.4041 67.1254L77.119 59.0625H65.1397L71.7147 68.8044L83.1893 71.1197C83.6396 71.2106 84.0343 71.4718 84.2867 71.8459C84.5391 72.2199 84.6285 72.6762 84.5352 73.1143L83.4807 78.0705C83.4346 78.2878 83.345 78.494 83.2169 78.6776C83.0888 78.8611 82.9248 79.0182 82.7342 79.14C82.5436 79.2618 82.3303 79.3458 82.1063 79.3873C81.8823 79.4288 81.6521 79.4269 81.4289 79.3817L78.444 78.7792L79.3286 80.0904L90.8032 82.4057C91.2534 82.4962 91.6483 82.757 91.901 83.1307C92.1537 83.5044 92.2435 83.9605 92.1508 84.3986L91.0946 89.3565C91.0011 89.7946 90.7327 90.1787 90.3482 90.4242C89.9638 90.6698 89.4949 90.7568 89.0445 90.666L86.0597 90.0652L89.355 94.959C89.607 95.333 89.6962 95.7891 89.6029 96.227C89.5095 96.6649 89.2414 97.0489 88.8572 97.2945L83.0592 101.007C82.7758 101.182 82.4463 101.274 82.1105 101.27ZM76.512 89.6062C76.7995 89.6062 77.0826 89.6757 77.3357 89.8086C77.5888 89.9414 77.804 90.1334 77.9619 90.3673L82.6066 97.2489L85.5064 95.3927L80.8618 88.5111C80.6735 88.2321 80.5745 87.905 80.5773 87.5712C80.58 87.2375 80.6845 86.912 80.8774 86.636C81.0703 86.36 81.3429 86.1459 81.6609 86.0207C81.9789 85.8954 82.3279 85.8648 82.6638 85.9326L88.0508 87.0193L88.3976 85.3672L77.9133 83.2511C77.4642 83.1596 77.0707 82.8987 76.8189 82.5255L73.2409 77.2267C73.0527 76.9477 72.9536 76.6207 72.9564 76.2869C72.9592 75.9532 73.0636 75.6277 73.2565 75.3517C73.4494 75.0757 73.7221 74.8616 74.0401 74.7363C74.358 74.6111 74.7071 74.5805 75.0429 74.6482L80.4299 75.7333L80.7768 74.0813L70.2925 71.9668C69.8434 71.8753 69.4499 71.6144 69.1981 71.2412L60.4655 58.3014C60.2932 58.0462 60.1953 57.7503 60.1823 57.4452C60.1692 57.1401 60.2414 56.8373 60.3913 56.569C60.5412 56.3008 60.7631 56.0771 61.0333 55.9218C61.3036 55.7666 61.612 55.6856 61.9259 55.6875H77.837C78.297 55.6876 78.738 55.8654 79.0632 56.1819L86.6303 63.5462L87.8582 62.3531L83.968 58.5681C83.7256 58.3321 83.5604 58.0314 83.4935 57.7041C83.4266 57.3768 83.461 57.0376 83.5922 56.7293C83.7235 56.421 83.9457 56.1574 84.2309 55.972C84.516 55.7866 84.8513 55.6876 85.1942 55.6875H91.712C92.172 55.6876 92.613 55.8654 92.9382 56.1819L100.505 63.5462L101.733 62.3531L97.843 58.5681C97.6006 58.3321 97.4354 58.0314 97.3685 57.7041C97.3016 57.3768 97.336 57.0376 97.4672 56.7293C97.5985 56.421 97.8207 56.1574 98.1059 55.972C98.391 55.7866 98.7263 55.6876 99.0692 55.6875H107.531V52.3125H99.0692C98.7263 52.3124 98.391 52.2134 98.1059 52.028C97.8207 51.8426 97.5985 51.579 97.4672 51.2707C97.336 50.9624 97.3016 50.6232 97.3685 50.2959C97.4354 49.9686 97.6006 49.6679 97.843 49.4319L101.733 45.6469L100.505 44.4538L92.9382 51.8181C92.613 52.1346 92.172 52.3124 91.712 52.3125H85.1942C84.8513 52.3124 84.516 52.2134 84.2309 52.028C83.9457 51.8426 83.7235 51.579 83.5922 51.2707C83.461 50.9624 83.4266 50.6232 83.4935 50.2959C83.5604 49.9686 83.7256 49.6679 83.968 49.4319L87.8582 45.6469L86.6303 44.4538L79.0632 51.8181C78.738 52.1346 78.297 52.3124 77.837 52.3125H61.8808C61.5678 52.3126 61.2607 52.2302 60.9919 52.0742C60.7232 51.9183 60.5028 51.6944 60.3542 51.4265C60.2056 51.1585 60.1342 50.8564 60.1477 50.5522C60.1612 50.248 60.259 49.9531 60.4308 49.6986L69.2102 36.6879C69.462 36.3147 69.8555 36.0538 70.3046 35.9623L80.7889 33.8479L80.442 32.1958L75.0551 33.2809C74.7192 33.3487 74.3702 33.318 74.0522 33.1928C73.7342 33.0676 73.4615 32.8534 73.2687 32.5774C73.0758 32.3014 72.9713 31.9759 72.9686 31.6422C72.9658 31.3084 73.0648 30.9814 73.2531 30.7024L76.8311 25.4036C77.0829 25.0304 77.4764 24.7695 77.9255 24.678L88.4098 22.5619L88.0629 20.9098L82.6759 21.9966C82.34 22.0643 81.991 22.0337 81.673 21.9085C81.3551 21.7833 81.0824 21.5691 80.8895 21.2931C80.6966 21.0171 80.5922 20.6916 80.5894 20.3579C80.5866 20.0241 80.6856 19.6971 80.8739 19.4181L85.47 12.6073L82.5562 10.7544L77.9584 17.5652C77.7701 17.8441 77.501 18.0625 77.1852 18.1926C76.8694 18.3228 76.5209 18.3589 76.184 18.2964C75.8471 18.2339 75.5368 18.0756 75.2923 17.8415C75.0478 17.6074 74.8802 17.3081 74.8105 16.9813L73.6936 11.7416L71.9974 12.0791L74.1723 22.275C74.2191 22.4925 74.2213 22.7169 74.1787 22.9353C74.1362 23.1536 74.0497 23.3616 73.9243 23.5474L70.348 28.8563C70.1599 29.1358 69.8907 29.3546 69.5746 29.4852C69.2585 29.6157 68.9097 29.652 68.5724 29.5894C68.2351 29.5269 67.9245 29.3684 67.6799 29.1339C67.4352 28.8994 67.2677 28.5996 67.1984 28.2724L66.0797 23.0276L64.3817 23.3651L66.5532 33.5593C66.6 33.7768 66.6022 34.0012 66.5596 34.2196C66.517 34.4379 66.4306 34.6459 66.3052 34.8317L56.9222 48.7367C56.7547 48.9575 56.5362 49.137 56.2844 49.2607C56.0325 49.3845 55.7544 49.4489 55.4722 49.4489C55.1901 49.4489 54.912 49.3845 54.6601 49.2607C54.4083 49.137 54.1898 48.9575 54.0223 48.7367L44.6393 34.8317C44.5142 34.6458 44.4281 34.4377 44.3858 34.2194C44.3435 34.001 44.346 33.7767 44.3931 33.5593L46.5645 23.3651L44.8665 23.0276L43.7513 28.2673C43.682 28.5945 43.5145 28.8944 43.2698 29.1288C43.0252 29.3633 42.7146 29.5219 42.3773 29.5844C42.04 29.6469 41.6912 29.6106 41.3751 29.4801C41.059 29.3496 40.7898 29.1307 40.6017 28.8512L37.0289 23.5508C36.9035 23.365 36.817 23.157 36.7745 22.9386C36.7319 22.7203 36.7341 22.4959 36.7809 22.2784L38.9523 12.0842L37.2544 11.7467L36.1392 16.9864C36.0699 17.3136 35.9023 17.6134 35.6577 17.8479C35.4131 18.0824 35.1024 18.2409 34.7651 18.3034C34.4278 18.366 34.079 18.3297 33.7629 18.1992C33.4468 18.0686 33.1777 17.8498 32.9895 17.5703L28.3935 10.7595L25.4953 12.6073L30.0931 19.4181C30.2814 19.6971 30.3804 20.0241 30.3776 20.3579C30.3749 20.6916 30.2704 21.0171 30.0775 21.2931C29.8847 21.5691 29.612 21.7833 29.294 21.9085C28.976 22.0337 28.627 22.0643 28.2911 21.9966L22.9042 20.9098L22.5573 22.5619L33.0416 24.678C33.4907 24.7695 33.8842 25.0304 34.136 25.4036L37.7122 30.7024C37.9015 30.982 38.0011 31.3101 37.9981 31.6449C37.9952 31.9797 37.89 32.3061 37.6959 32.5826C37.5017 32.859 37.2274 33.0731 36.9079 33.1974C36.5884 33.3218 36.2381 33.3508 35.9016 33.2809L30.525 32.1958L30.1781 33.8479L40.6607 35.9623C41.1098 36.0538 41.5033 36.3147 41.7551 36.6879L50.5345 49.6986C50.7069 49.9539 50.8048 50.25 50.8178 50.5552C50.8308 50.8604 50.7584 51.1634 50.6083 51.4317C50.4582 51.7 50.236 51.9237 49.9656 52.0788C49.6951 52.2339 49.3864 52.3147 49.0724 52.3125H33.0763C32.6163 52.3124 32.1752 52.1346 31.8501 51.8181L24.2812 44.4538L23.055 45.6469L26.9435 49.4319C27.186 49.6679 27.3511 49.9686 27.418 50.2959C27.4849 50.6232 27.4506 50.9624 27.3193 51.2707C27.1881 51.579 26.9658 51.8426 26.6807 52.028C26.3955 52.2134 26.0603 52.3124 25.7173 52.3125H19.2013C18.7413 52.3124 18.3002 52.1346 17.9751 51.8181L10.4062 44.4538L9.18005 45.6469L13.0685 49.4319C13.311 49.6679 13.4761 49.9686 13.543 50.2959C13.6099 50.6232 13.5756 50.9624 13.4443 51.2707C13.3131 51.579 13.0908 51.8426 12.8057 52.028C12.5205 52.2134 12.1853 52.3124 11.8423 52.3125H3.46875V55.6875H11.8423C12.1853 55.6876 12.5205 55.7866 12.8057 55.972C13.0908 56.1574 13.3131 56.421 13.4443 56.7293C13.5756 57.0376 13.6099 57.3768 13.543 57.7041C13.4761 58.0314 13.311 58.3321 13.0685 58.5681L9.18005 62.3531L10.4062 63.5462L17.9751 56.1819C18.3002 55.8654 18.7413 55.6876 19.2013 55.6875H25.7173C26.0603 55.6876 26.3955 55.7866 26.6807 55.972C26.9658 56.1574 27.1881 56.421 27.3193 56.7293C27.4506 57.0376 27.4849 57.3768 27.418 57.7041C27.3511 58.0314 27.186 58.3321 26.9435 58.5681L23.055 62.3531L24.2812 63.5462L31.8501 56.1819C32.1752 55.8654 32.6163 55.6876 33.0763 55.6875H49.0325C49.3455 55.6874 49.6526 55.7698 49.9213 55.9258C50.1901 56.0817 50.4105 56.3056 50.5591 56.5735C50.7077 56.8415 50.7791 57.1436 50.7656 57.4478C50.7521 57.752 50.6543 58.0469 50.4825 58.3014L41.7499 71.2412C41.4981 71.6144 41.1046 71.8753 40.6555 71.9668L30.166 74.0813L30.5129 75.7333L35.8981 74.6482C36.234 74.5805 36.583 74.6111 36.901 74.7363C37.2189 74.8616 37.4916 75.0757 37.6845 75.3517C37.8774 75.6277 37.9818 75.9532 37.9846 76.2869C37.9874 76.6207 37.8884 76.9477 37.7001 77.2267L34.129 82.5187C33.8772 82.892 33.4837 83.1529 33.0346 83.2444L22.5469 85.3672L22.8937 87.0193L28.2807 85.9326C28.6166 85.8648 28.9656 85.8954 29.2836 86.0207C29.6016 86.1459 29.8742 86.36 30.0671 86.636C30.26 86.912 30.3645 87.2375 30.3672 87.5712C30.37 87.905 30.271 88.2321 30.0827 88.5111L25.4381 95.3927L28.338 97.2489L32.9809 90.3673C33.169 90.0878 33.4381 89.8689 33.7542 89.7384C34.0703 89.6079 34.4191 89.5716 34.7564 89.6341C35.0937 89.6966 35.4044 89.8552 35.649 90.0897C35.8936 90.3241 36.0612 90.624 36.1305 90.9512L37.2544 96.1875L38.9523 95.85L36.7809 85.6558C36.7329 85.437 36.7301 85.2111 36.7727 84.9912C36.8153 84.7713 36.9024 84.5618 37.0289 84.375L40.6052 79.0746C40.7933 78.7951 41.0625 78.5762 41.3785 78.4457C41.6946 78.3151 42.0434 78.2788 42.3807 78.3414C42.7181 78.4039 43.0287 78.5624 43.2733 78.7969C43.5179 79.0314 43.6855 79.3312 43.7548 79.6584L44.87 84.8998L46.568 84.5623L44.4 74.3647C44.3529 74.1473 44.3505 73.923 44.3927 73.7047C44.435 73.4863 44.5212 73.2782 44.6463 73.0924L54.0293 59.1874C54.1968 58.9665 54.4152 58.787 54.6671 58.6633C54.9189 58.5396 55.1971 58.4752 55.4792 58.4752C55.7613 58.4752 56.0395 58.5396 56.2913 58.6633C56.5431 58.787 56.7616 58.9665 56.9291 59.1874L66.3121 73.0924C66.4375 73.2781 66.524 73.4861 66.5665 73.7045C66.6091 73.9228 66.6069 74.1472 66.5601 74.3647L64.3887 84.5589L66.0866 84.8964L67.2018 79.6551C67.2711 79.3278 67.4387 79.028 67.6833 78.7935C67.9279 78.5591 68.2386 78.4005 68.5759 78.338C68.9132 78.2755 69.262 78.3118 69.5781 78.4423C69.8942 78.5728 70.1633 78.7917 70.3515 79.0712L73.9243 84.375C74.0497 84.5607 74.1362 84.7688 74.1787 84.9871C74.2213 85.2055 74.2191 85.4298 74.1723 85.6474L72.0008 95.85L73.6971 96.1875L74.814 90.9562C74.8834 90.6292 75.051 90.3296 75.2955 90.0953C75.54 89.861 75.8505 89.7025 76.1876 89.64C76.2945 89.6196 76.403 89.6083 76.512 89.6062Z" fill="black"/>
</svg>
