<svg width="110" height="108" viewBox="0 0 110 108" fill="none" xmlns="http://www.w3.org/2000/svg">
<g clip-path="url(#clip0_3_7712)">
<path d="M62.3666 21.9375H47.6334L44.6875 1.6875H65.3125L62.3666 21.9375Z" fill="#FF5252"/>
<g opacity="0.1">
<path d="M51.0709 18.5625L48.6166 1.6875H44.6875L47.6334 21.9375H62.3666L62.8564 18.5625H51.0709Z" fill="black"/>
</g>
<path d="M65.5084 21.9375H44.4916C42.7013 21.9375 41.25 23.3624 41.25 25.1201V25.5049C41.25 27.2626 42.7013 28.6875 44.4916 28.6875H65.5084C67.2987 28.6875 68.75 27.2626 68.75 25.5049V25.1201C68.75 23.3624 67.2987 21.9375 65.5084 21.9375Z" fill="#BF3E3E"/>
<g opacity="0.1">
<path d="M44.6875 25.5049V25.1201C44.6873 24.7021 44.771 24.2882 44.9338 23.9019C45.0966 23.5157 45.3354 23.1648 45.6364 22.8692C45.9375 22.5736 46.2949 22.3392 46.6883 22.1793C47.0817 22.0194 47.5033 21.9373 47.9291 21.9375H44.4916C44.0658 21.9373 43.6442 22.0194 43.2508 22.1793C42.8574 22.3392 42.5 22.5736 42.1989 22.8692C41.8979 23.1648 41.6591 23.5157 41.4963 23.9019C41.3335 24.2882 41.2498 24.7021 41.25 25.1201V25.5049C41.2498 25.9229 41.3335 26.3368 41.4963 26.7231C41.6591 27.1093 41.8979 27.4602 42.1989 27.7558C42.5 28.0514 42.8574 28.2858 43.2508 28.4457C43.6442 28.6056 44.0658 28.6877 44.4916 28.6875H47.9291C47.5033 28.6877 47.0817 28.6056 46.6883 28.4457C46.2949 28.2858 45.9375 28.0514 45.6364 27.7558C45.3354 27.4602 45.0966 27.1093 44.9338 26.7231C44.771 26.3368 44.6873 25.9229 44.6875 25.5049Z" fill="black"/>
</g>
<path d="M25.7812 40.5C27.6797 40.5 29.2188 38.989 29.2188 37.125C29.2188 35.261 27.6797 33.75 25.7812 33.75C23.8828 33.75 22.3438 35.261 22.3438 37.125C22.3438 38.989 23.8828 40.5 25.7812 40.5Z" fill="#89C7C9"/>
<path d="M18.9062 18.5625C21.754 18.5625 24.0625 16.2959 24.0625 13.5C24.0625 10.7041 21.754 8.4375 18.9062 8.4375C16.0585 8.4375 13.75 10.7041 13.75 13.5C13.75 16.2959 16.0585 18.5625 18.9062 18.5625Z" fill="#89C7C9"/>
<path d="M55 106.312C68.764 106.312 79.9219 95.3575 79.9219 81.8438C79.9219 68.33 68.764 57.375 55 57.375C41.236 57.375 30.0781 68.33 30.0781 81.8438C30.0781 95.3575 41.236 106.312 55 106.312Z" fill="#D9F8F9"/>
<g opacity="0.1">
<path d="M61.875 102.937C56.5859 102.94 51.4333 101.29 47.1634 98.2252C42.8935 95.1607 39.728 90.8413 38.1253 85.8925C36.5226 80.9438 36.566 75.6226 38.2492 70.6996C39.9324 65.7767 43.168 61.5076 47.4874 58.5107C44.0507 59.5699 40.8888 61.3479 38.2194 63.7222C35.5499 66.0965 33.4364 69.0108 32.0244 72.2642C30.6124 75.5176 29.9354 79.0329 30.0402 82.5679C30.145 86.1028 31.0289 89.5735 32.6312 92.7408C34.2335 95.9081 36.5161 98.6968 39.3216 100.915C42.1271 103.133 45.389 104.727 48.8826 105.588C52.3761 106.45 56.0182 106.557 59.5581 105.903C63.098 105.25 66.4515 103.85 69.3877 101.802C66.9573 102.555 64.4236 102.938 61.875 102.937Z" fill="black"/>
</g>
<path d="M51.5625 70.875C49.3211 74.1763 48.125 78.0551 48.125 82.0226V87.75L55 96.1875L61.875 87.75V82.0226C61.875 78.0551 60.6789 74.1763 58.4375 70.875H51.5625Z" fill="#FFE36C"/>
<path d="M58.4375 70.875H51.5625L49.8438 64.125H60.1562L58.4375 70.875Z" fill="#FCD535"/>
<path d="M55 57.375C63.0685 57.375 69.6094 50.9531 69.6094 43.0312C69.6094 35.1094 63.0685 28.6875 55 28.6875C46.9315 28.6875 40.3906 35.1094 40.3906 43.0312C40.3906 50.9531 46.9315 57.375 55 57.375Z" fill="#D9F8F9"/>
<g opacity="0.1">
<path d="M45.5469 43.0313C45.5495 39.668 46.7558 36.4126 48.955 33.8339C51.1542 31.2552 54.2063 29.5173 57.5781 28.9238C55.4712 28.5436 53.3049 28.623 51.2327 29.1564C49.1605 29.6897 47.2332 30.664 45.5872 32.0101C43.9412 33.3562 42.6169 35.0413 41.7081 36.9459C40.7992 38.8505 40.3281 40.928 40.3281 43.0313C40.3281 45.1345 40.7992 47.212 41.7081 49.1166C42.6169 51.0212 43.9412 52.7063 45.5872 54.0524C47.2332 55.3985 49.1605 56.3728 51.2327 56.9061C53.3049 57.4395 55.4712 57.5189 57.5781 57.1388C54.2063 56.5452 51.1542 54.8073 48.955 52.2286C46.7558 49.6499 45.5495 46.3945 45.5469 43.0313Z" fill="black"/>
</g>
<path d="M107.829 26.6591L106.306 23.6334L101.576 25.9301L94.5313 21.9375L101.576 17.9449L106.306 20.2416L107.829 17.2159L105.155 15.9165L108.326 14.1176L106.607 11.1949L103.436 12.9921L103.627 10.0676L100.196 9.85162L99.8577 15.0204L92.8125 19.0147V11.0278L97.2039 8.154L95.2961 5.346L92.8125 6.97275V3.375H89.375V6.97275L86.8914 5.346L84.9836 8.154L89.375 11.0278V19.0147L82.3299 15.0204L81.9913 9.85162L78.5606 10.0676L78.7514 12.9921L75.5803 11.1949L73.8616 14.1176L77.0327 15.9165L74.3583 17.2159L75.8811 20.2416L80.6111 17.9449L87.6563 21.9375L80.6111 25.9301L75.8811 23.6334L74.3583 26.6591L77.0327 27.9585L73.8616 29.7574L75.5803 32.6801L78.7514 30.8829L78.5606 33.8074L81.9913 34.0234L82.3299 28.8546L89.375 24.8603V32.8472L84.9836 35.721L86.8914 38.529L89.375 36.9022V40.5H92.8125V36.9022L95.2961 38.529L97.2039 35.721L92.8125 32.8472V24.8603L99.8577 28.8546L100.196 34.0234L103.627 33.8074L103.436 30.8829L106.607 32.6801L108.326 29.7574L105.155 27.9585L107.829 26.6591Z" fill="black"/>
<path d="M25.7813 42.1875C24.7614 42.1875 23.7645 41.8906 22.9166 41.3343C22.0687 40.778 21.4078 39.9874 21.0175 39.0623C20.6272 38.1373 20.5251 37.1194 20.7241 36.1374C20.923 35.1553 21.4141 34.2533 22.1352 33.5453C22.8563 32.8373 23.7751 32.3551 24.7753 32.1598C25.7755 31.9644 26.8123 32.0647 27.7545 32.4479C28.6966 32.831 29.5019 33.4799 30.0685 34.3124C30.6351 35.145 30.9375 36.1237 30.9375 37.125C30.9375 38.4677 30.3943 39.7553 29.4273 40.7047C28.4603 41.6541 27.1488 42.1875 25.7813 42.1875ZM25.7813 35.4375C25.4413 35.4375 25.109 35.5365 24.8264 35.7219C24.5437 35.9073 24.3234 36.1709 24.1933 36.4792C24.0632 36.7876 24.0292 37.1269 24.0955 37.4542C24.1618 37.7816 24.3255 38.0822 24.5659 38.3182C24.8063 38.5542 25.1125 38.715 25.4459 38.7801C25.7793 38.8452 26.1249 38.8118 26.439 38.6841C26.7531 38.5563 27.0215 38.34 27.2103 38.0625C27.3992 37.785 27.5 37.4588 27.5 37.125C27.5 36.6775 27.3189 36.2482 26.9966 35.9318C26.6743 35.6153 26.2371 35.4375 25.7813 35.4375Z" fill="black"/>
<path d="M18.9063 20.25C17.5465 20.25 16.2173 19.8541 15.0867 19.1124C13.9561 18.3707 13.0749 17.3165 12.5546 16.0831C12.0342 14.8497 11.8981 13.4925 12.1634 12.1831C12.4286 10.8738 13.0834 9.67104 14.0449 8.72703C15.0064 7.78303 16.2314 7.14015 17.565 6.8797C18.8986 6.61925 20.281 6.75292 21.5372 7.26382C22.7934 7.77471 23.8672 8.63987 24.6226 9.7499C25.378 10.8599 25.7813 12.165 25.7813 13.5C25.7813 15.2902 25.0569 17.0071 23.7676 18.273C22.4783 19.5388 20.7296 20.25 18.9063 20.25ZM18.9063 10.125C18.2264 10.125 17.5618 10.3229 16.9965 10.6938C16.4312 11.0646 15.9906 11.5917 15.7304 12.2084C15.4702 12.8251 15.4022 13.5037 15.5348 14.1584C15.6674 14.8131 15.9948 15.4145 16.4756 15.8865C16.9563 16.3585 17.5688 16.6799 18.2356 16.8102C18.9024 16.9404 19.5936 16.8735 20.2217 16.6181C20.8498 16.3627 21.3867 15.9301 21.7644 15.3751C22.1421 14.82 22.3438 14.1675 22.3438 13.5C22.3438 12.6049 21.9816 11.7465 21.3369 11.1135C20.6923 10.4806 19.8179 10.125 18.9063 10.125Z" fill="black"/>
<path d="M91.0938 57.375V54H87.175L85.8481 50.0918L82.5825 51.1582L84.0159 55.377L76.0237 65.8395C72.7269 61.6567 68.2191 58.5503 63.0919 56.9278C65.4235 55.625 67.3911 53.7767 68.8198 51.5474C70.2486 49.318 71.0941 46.7766 71.2814 44.149C71.4686 41.5215 70.9918 38.8892 69.8932 36.4862C68.7946 34.0832 67.1083 31.9839 64.9842 30.375H65.4998C66.8165 30.3759 68.0796 29.8634 69.0114 28.9501C69.9432 28.0368 70.4674 26.7976 70.4688 25.5049V25.1201C70.4674 23.8289 69.9443 22.5909 69.0144 21.6779C68.0845 20.7649 66.8236 20.2513 65.5084 20.25H64.3483L67.0141 1.92712C67.049 1.6877 67.0312 1.44369 66.9617 1.21164C66.8923 0.979578 66.7728 0.764895 66.6114 0.582135C66.45 0.399374 66.2506 0.252809 66.0264 0.15237C65.8023 0.0519317 65.5589 -3.22373e-05 65.3125 1.50043e-08H44.6875C44.4411 -3.22373e-05 44.1977 0.0519317 43.9736 0.15237C43.7494 0.252809 43.5499 0.399374 43.3886 0.582135C43.2272 0.764895 43.1077 0.979578 43.0383 1.21164C42.9688 1.44369 42.951 1.6877 42.9859 1.92712L45.6517 20.25H44.4916C43.1764 20.2513 41.9155 20.7649 40.9856 21.6779C40.0557 22.5909 39.5326 23.8289 39.5312 25.1201V25.5049C39.5326 26.7961 40.0557 28.0341 40.9856 28.9471C41.9155 29.8601 43.1764 30.3737 44.4916 30.375H45.0072C42.8819 31.9837 41.1945 34.0831 40.0951 36.4865C38.9956 38.89 38.5182 41.5229 38.7054 44.1513C38.8925 46.7796 39.7383 49.3218 41.1676 51.5517C42.5968 53.7816 44.5653 55.6301 46.8978 56.9329C41.7702 58.5553 37.2622 61.6625 33.9659 65.8463L25.9738 55.3838L27.4072 51.165L24.1416 50.0985L22.825 54H18.9062V57.375H23.2031L31.9378 68.8078C29.596 72.7838 28.3618 77.2951 28.3594 81.888C28.3569 86.481 29.5863 90.9936 31.9239 94.9719C34.2615 98.9503 37.6248 102.254 41.6757 104.551C45.7265 106.849 50.322 108.058 55 108.058C59.678 108.058 64.2735 106.849 68.3243 104.551C72.3752 102.254 75.7385 98.9503 78.0761 94.9719C80.4137 90.9936 81.6431 86.481 81.6406 81.888C81.6382 77.2951 80.404 72.7838 78.0622 68.8078L86.7969 57.375H91.0938ZM46.6692 3.375H63.3308L60.8764 20.25H49.1236L46.6692 3.375ZM44.4916 27C44.0877 27 43.7004 26.8425 43.4148 26.5621C43.1292 26.2817 42.9688 25.9014 42.9688 25.5049V25.1201C42.9688 24.7236 43.1292 24.3433 43.4148 24.0629C43.7004 23.7825 44.0877 23.625 44.4916 23.625H65.5084C65.9123 23.625 66.2996 23.7825 66.5852 24.0629C66.8708 24.3433 67.0312 24.7236 67.0312 25.1201V25.5049C67.0312 25.9014 66.8708 26.2817 66.5852 26.5621C66.2996 26.8425 65.9123 27 65.5084 27H44.4916ZM42.1094 43.0312C42.1094 40.5281 42.8654 38.0811 44.2818 35.9998C45.6983 33.9185 47.7115 32.2963 50.067 31.3384C52.4224 30.3805 55.0143 30.1298 57.5148 30.6182C60.0154 31.1065 62.3123 32.3119 64.1151 34.0819C65.9178 35.8519 67.1455 38.1071 67.6429 40.5621C68.1403 43.0172 67.885 45.562 66.9094 47.8746C65.9337 50.1872 64.2815 52.1639 62.1617 53.5545C60.0418 54.9452 57.5495 55.6875 55 55.6875C51.5823 55.6839 48.3056 54.3494 45.889 51.9766C43.4723 49.6039 42.113 46.3868 42.1094 43.0312ZM55 104.625C50.4109 104.625 45.9248 103.289 42.109 100.786C38.2933 98.2824 35.3193 94.7245 33.5631 90.5618C31.8069 86.399 31.3474 81.8185 32.2427 77.3993C33.138 72.9802 35.3479 68.921 38.5929 65.735C41.8379 62.549 45.9723 60.3793 50.4733 59.5002C54.9743 58.6212 59.6396 59.0724 63.8795 60.7966C68.1193 62.5209 71.7431 65.4408 74.2927 69.1872C76.8423 72.9335 78.2031 77.338 78.2031 81.8438C78.1963 87.8837 75.7495 93.6743 71.3996 97.9451C67.0496 102.216 61.1518 104.618 55 104.625Z" fill="black"/>
<path d="M55 54C52.2658 53.9973 49.6444 52.9297 47.711 51.0315C45.7776 49.1333 44.6902 46.5595 44.6875 43.875H48.125C48.125 45.6652 48.8493 47.3821 50.1386 48.648C51.428 49.9138 53.1766 50.625 55 50.625C56.8234 50.625 58.572 49.9138 59.8614 48.648C61.1507 47.3821 61.875 45.6652 61.875 43.875H65.3125C65.3098 46.5595 64.2224 49.1333 62.289 51.0315C60.3556 52.9297 57.7342 53.9973 55 54Z" fill="black"/>
<path d="M50.7031 42.1875C50.1932 42.1875 49.6948 42.039 49.2708 41.7609C48.8468 41.4828 48.5164 41.0874 48.3213 40.6249C48.1261 40.1624 48.0751 39.6534 48.1745 39.1624C48.274 38.6714 48.5196 38.2204 48.8801 37.8664C49.2407 37.5124 49.7001 37.2713 50.2002 37.1736C50.7003 37.076 51.2186 37.1261 51.6897 37.3177C52.1608 37.5093 52.5635 37.8337 52.8468 38.25C53.13 38.6662 53.2813 39.1556 53.2813 39.6563C53.2813 40.3276 53.0096 40.9714 52.5261 41.4461C52.0426 41.9208 51.3869 42.1875 50.7031 42.1875Z" fill="black"/>
<path d="M59.2969 42.1875C58.787 42.1875 58.2885 42.039 57.8645 41.7609C57.4406 41.4828 57.1101 41.0874 56.915 40.6249C56.7199 40.1624 56.6688 39.6534 56.7683 39.1624C56.8678 38.6714 57.1133 38.2204 57.4739 37.8664C57.8344 37.5124 58.2938 37.2713 58.7939 37.1736C59.294 37.076 59.8124 37.1261 60.2835 37.3177C60.7546 37.5093 61.1572 37.8337 61.4405 38.25C61.7238 38.6662 61.875 39.1556 61.875 39.6563C61.875 40.3276 61.6034 40.9714 61.1199 41.4461C60.6364 41.9208 59.9806 42.1875 59.2969 42.1875Z" fill="black"/>
<path d="M55 97.875C54.7423 97.8751 54.4878 97.8183 54.2554 97.7087C54.0231 97.5992 53.8188 97.4397 53.6577 97.2422L46.7827 88.8047C46.5388 88.5053 46.4061 88.1333 46.4063 87.75V82.0125C46.4027 77.7116 47.6996 73.5065 50.1325 69.93L52.9925 71.8031C50.9351 74.8276 49.8392 78.3839 49.8438 82.0209V87.1577L55 93.4858L60.1563 87.1577V82.0209C60.1591 78.3868 59.0633 74.8336 57.0075 71.8116L59.8675 69.9384C62.3004 73.515 63.5973 77.7201 63.5938 82.0209V87.75C63.5939 88.1333 63.4612 88.5053 63.2173 88.8047L56.3423 97.2422C56.1812 97.4397 55.977 97.5992 55.7446 97.7087C55.5122 97.8183 55.2578 97.8751 55 97.875Z" fill="black"/>
<path d="M58.4375 72.5625H51.5625C51.1793 72.5625 50.8071 72.4368 50.5051 72.2053C50.203 71.9739 49.9884 71.65 49.8953 71.2851L48.1765 64.5351C48.113 64.2862 48.1082 64.0265 48.1623 63.7755C48.2164 63.5246 48.328 63.2891 48.4888 63.0868C48.6495 62.8846 48.8551 62.721 49.0898 62.6085C49.3246 62.496 49.5824 62.4375 49.8437 62.4375H60.1562C60.4175 62.4375 60.6753 62.496 60.9101 62.6085C61.1449 62.721 61.3504 62.8846 61.5112 63.0868C61.6719 63.2891 61.7835 63.5246 61.8376 63.7755C61.8918 64.0265 61.8869 64.2862 61.8234 64.5351L60.1046 71.2851C60.0115 71.65 59.7969 71.9739 59.4948 72.2053C59.1928 72.4368 58.8206 72.5625 58.4375 72.5625ZM52.9048 69.1875H57.0951L57.9545 65.8125H52.0454L52.9048 69.1875Z" fill="black"/>
</g>
<defs>
<clipPath id="clip0_3_7712">
<rect width="110" height="108" fill="white"/>
</clipPath>
</defs>
</svg>
