<svg width="109" height="108" viewBox="0 0 109 108" fill="none" xmlns="http://www.w3.org/2000/svg">
<path d="M98.7812 54C100.662 54 102.188 52.489 102.188 50.625C102.188 48.761 100.662 47.25 98.7812 47.25C96.9 47.25 95.375 48.761 95.375 50.625C95.375 52.489 96.9 54 98.7812 54Z" fill="#89C7C9"/>
<path d="M61.3125 13.5C63.1937 13.5 64.7188 11.989 64.7188 10.125C64.7188 8.26104 63.1937 6.75 61.3125 6.75C59.4313 6.75 57.9062 8.26104 57.9062 10.125C57.9062 11.989 59.4313 13.5 61.3125 13.5Z" fill="#B0DFE3"/>
<path d="M35.7656 50.625C37.6468 50.625 39.1719 49.114 39.1719 47.25C39.1719 45.386 37.6468 43.875 35.7656 43.875C33.8844 43.875 32.3594 45.386 32.3594 47.25C32.3594 49.114 33.8844 50.625 35.7656 50.625Z" fill="#B0DFE3"/>
<path d="M61.3125 102.938C63.1937 102.938 64.7188 101.426 64.7188 99.5625C64.7188 97.6985 63.1937 96.1875 61.3125 96.1875C59.4313 96.1875 57.9062 97.6985 57.9062 99.5625C57.9062 101.426 59.4313 102.938 61.3125 102.938Z" fill="#89C7C9"/>
<path d="M61.3125 45.5625C64.1343 45.5625 66.4219 43.2959 66.4219 40.5C66.4219 37.7041 64.1343 35.4375 61.3125 35.4375C58.4907 35.4375 56.2031 37.7041 56.2031 40.5C56.2031 43.2959 58.4907 45.5625 61.3125 45.5625Z" fill="#89C7C9"/>
<path d="M106.849 24.9716L105.34 21.9459L100.653 24.2426L93.6718 20.25L100.653 16.2574L105.34 18.5541L106.849 15.5284L104.199 14.229L107.341 12.4301L105.638 9.50737L102.496 11.3046L102.685 8.38013L99.2853 8.16412L98.9498 13.3329L91.9687 17.3272V9.34031L96.3202 6.4665L94.4297 3.6585L91.9687 5.28525V1.6875H88.5625V5.28525L86.1015 3.6585L84.211 6.4665L88.5625 9.34031V17.3272L81.5814 13.3329L81.2458 8.16412L77.8464 8.38013L78.0355 11.3046L74.8932 9.50737L73.1901 12.4301L76.3323 14.229L73.6823 15.5284L75.1912 18.5541L79.8782 16.2574L86.8593 20.25L79.8782 24.2426L75.1912 21.9459L73.6823 24.9716L76.3323 26.271L73.1901 28.0699L74.8932 30.9926L78.0355 29.1954L77.8464 32.1199L81.2458 32.3359L81.5814 27.1671L88.5625 23.1728V31.1597L84.211 34.0335L86.1015 36.8415L88.5625 35.2147V38.8125H91.9687V35.2147L94.4297 36.8415L96.3202 34.0335L91.9687 31.1597V23.1728L98.9498 27.1671L99.2853 32.3359L102.685 32.1199L102.496 29.1954L105.638 30.9926L107.341 28.0699L104.199 26.271L106.849 24.9716Z" fill="black"/>
<path d="M101.476 79.2636L99.9649 76.2379L94.7789 78.7792L86.8594 74.25L94.7789 69.7208L99.9649 72.2621L101.476 69.2364L98.3248 67.6924L102.005 65.5864L100.302 62.6636L96.6217 64.7679L96.8465 61.2917L93.4471 61.074L93.0758 66.7963L85.1563 71.3273V62.2671L89.971 59.0861L88.0822 56.2781L85.1563 58.2103V54H81.75V58.2103L78.8241 56.2781L76.9353 59.0861L81.75 62.2671V71.3273L73.8305 66.7963L73.4592 61.074L70.0598 61.2917L70.2846 64.7679L66.6041 62.6636L64.901 65.5864L68.5815 67.6924L65.4307 69.2364L66.9413 72.2621L72.1274 69.7208L80.0469 74.25L72.1274 78.7792L66.9413 76.2379L65.4307 79.2636L68.5815 80.8076L64.901 82.9136L66.6041 85.8364L70.2846 83.7321L70.0598 87.2083L73.4592 87.426L73.8305 81.7037L81.75 77.1727V86.2329L76.9353 89.4139L78.8241 92.2219L81.75 90.2897V94.5H85.1563V90.2897L88.0822 92.2219L89.971 89.4139L85.1563 86.2329V77.1727L93.0758 81.7037L93.4471 87.426L96.8465 87.2083L96.6217 83.7321L100.302 85.8364L102.005 82.9136L98.3248 80.8076L101.476 79.2636Z" fill="black"/>
<path d="M37.2508 26.6591L35.7401 23.6334L31.0531 25.9301L24.072 21.9375L31.0531 17.9449L35.7401 20.2416L37.2508 17.2159L34.599 15.9165L37.7413 14.1176L36.0381 11.1949L32.8959 12.9921L33.0849 10.0676L29.6855 9.84994L29.35 15.0204L22.3689 19.0147V11.0278L26.7186 8.154L24.8299 5.346L22.3689 6.97275V3.375H18.9626V6.97275L16.4999 5.346L14.6111 8.154L18.9626 11.0278V19.0147L11.9815 15.0204L11.646 9.84994L8.24655 10.0676L8.4356 12.9921L5.29333 11.1949L3.59021 14.1176L6.73248 15.9165L4.08071 17.2159L5.59138 20.2416L10.2784 17.9449L17.2595 21.9375L10.2784 25.9301L5.59138 23.6334L4.08071 26.6591L6.73248 27.9585L3.59021 29.7574L5.29333 32.6801L8.4356 30.8829L8.24655 33.8074L11.646 34.0251L11.9815 28.8546L18.9626 24.8603V32.8472L14.6111 35.721L16.4999 38.529L18.9626 36.9022V40.5H22.3689V36.9022L24.8299 38.529L26.7186 35.721L22.3689 32.8472V24.8603L29.35 28.8546L29.6855 34.0251L33.0849 33.8074L32.8959 30.8829L36.0381 32.6801L37.7413 29.7574L34.599 27.9585L37.2508 26.6591Z" fill="black"/>
<path d="M50.45 86.4844L48.9393 83.4587L41.5 87.102L29.3568 80.1562L41.5 73.2105L48.9393 76.8538L50.45 73.8281L45.0459 71.1821L51.138 67.6958L49.4349 64.773L43.3411 68.2577L43.7294 62.2974L40.33 62.0814L39.7952 70.2861L27.6536 77.2335V63.3403L34.5598 58.779L32.6693 55.971L27.6536 59.2852V52.3125H24.2474V59.2852L19.2317 55.971L17.3412 58.779L24.2474 63.3403V77.2335L12.1041 70.2861L11.5693 62.0814L8.16989 62.2974L8.5582 68.2577L2.46442 64.773L0.761292 67.6958L6.85507 71.1821L1.45106 73.8281L2.96173 76.8538L10.401 73.2105L22.5443 80.1562L10.401 87.102L2.96173 83.4587L1.45106 86.4844L6.85507 89.1304L0.761292 92.6167L2.46442 95.5395L8.5582 92.0548L8.16989 98.0151L11.5693 98.2311L12.1041 90.0264L24.2474 83.079V96.9722L17.3412 101.534L19.2317 104.341L24.2474 101.027V108H27.6536V101.027L32.6693 104.341L34.5598 101.534L27.6536 96.9722V83.079L39.7952 90.0264L40.33 98.2311L43.7294 98.0151L43.3411 92.0548L49.4349 95.5395L51.138 92.6167L45.0459 89.1304L50.45 86.4844Z" fill="black"/>
<path d="M61.3125 15.1875C60.302 15.1875 59.3141 14.8906 58.4739 14.3343C57.6337 13.778 56.9788 12.9874 56.5921 12.0623C56.2053 11.1373 56.1042 10.1194 56.3013 9.13736C56.4984 8.15533 56.9851 7.25328 57.6996 6.54527C58.4142 5.83727 59.3246 5.35511 60.3157 5.15978C61.3068 4.96444 62.3342 5.06469 63.2678 5.44786C64.2014 5.83103 64.9994 6.4799 65.5608 7.31243C66.1222 8.14495 66.4219 9.12373 66.4219 10.125C66.4219 11.4677 65.8836 12.7553 64.9254 13.7047C63.9672 14.6541 62.6676 15.1875 61.3125 15.1875ZM61.3125 8.4375C60.9757 8.4375 60.6464 8.53647 60.3663 8.7219C60.0862 8.90732 59.8679 9.17087 59.739 9.47922C59.6101 9.78758 59.5764 10.1269 59.6421 10.4542C59.7078 10.7816 59.87 11.0822 60.1082 11.3182C60.3464 11.5542 60.6499 11.715 60.9802 11.7801C61.3106 11.8452 61.6531 11.8118 61.9643 11.684C62.2755 11.5563 62.5415 11.34 62.7286 11.0625C62.9157 10.785 63.0156 10.4588 63.0156 10.125C63.0156 9.67745 62.8362 9.24823 62.5168 8.93176C62.1974 8.61529 61.7642 8.4375 61.3125 8.4375Z" fill="black"/>
<path d="M98.7813 55.6875C97.7707 55.6875 96.7829 55.3906 95.9426 54.8343C95.1024 54.278 94.4475 53.4874 94.0608 52.5623C93.6741 51.6373 93.5729 50.6194 93.7701 49.6374C93.9672 48.6553 94.4538 47.7533 95.1684 47.0453C95.8829 46.3373 96.7933 45.8551 97.7845 45.6598C98.7756 45.4644 99.8029 45.5647 100.737 45.9479C101.67 46.331 102.468 46.9799 103.03 47.8124C103.591 48.645 103.891 49.6237 103.891 50.625C103.891 51.9677 103.352 53.2553 102.394 54.2047C101.436 55.1541 100.136 55.6875 98.7813 55.6875ZM98.7813 48.9375C98.4444 48.9375 98.1151 49.0365 97.835 49.2219C97.555 49.4073 97.3367 49.6709 97.2078 49.9792C97.0789 50.2876 97.0451 50.6269 97.1109 50.9542C97.1766 51.2816 97.3388 51.5822 97.577 51.8182C97.8151 52.0542 98.1186 52.215 98.449 52.2801C98.7794 52.3452 99.1218 52.3118 99.433 52.1841C99.7442 52.0563 100.01 51.84 100.197 51.5625C100.384 51.285 100.484 50.9588 100.484 50.625C100.484 50.1775 100.305 49.7482 99.9855 49.4318C99.6661 49.1153 99.2329 48.9375 98.7813 48.9375Z" fill="black"/>
<path d="M35.7656 52.3125C34.7551 52.3125 33.7672 52.0156 32.927 51.4593C32.0868 50.903 31.4319 50.1124 31.0452 49.1873C30.6585 48.2623 30.5573 47.2444 30.7544 46.2624C30.9516 45.2803 31.4382 44.3783 32.1528 43.6703C32.8673 42.9623 33.7777 42.4801 34.7688 42.2848C35.76 42.0894 36.7873 42.1897 37.7209 42.5729C38.6545 42.956 39.4525 43.6049 40.0139 44.4374C40.5753 45.27 40.875 46.2487 40.875 47.25C40.875 48.5927 40.3367 49.8803 39.3785 50.8297C38.4203 51.7791 37.1207 52.3125 35.7656 52.3125ZM35.7656 45.5625C35.4288 45.5625 35.0995 45.6615 34.8194 45.8469C34.5393 46.0323 34.3211 46.2959 34.1921 46.6042C34.0632 46.9126 34.0295 47.2519 34.0952 47.5792C34.1609 47.9066 34.3231 48.2072 34.5613 48.4432C34.7995 48.6792 35.103 48.84 35.4334 48.9051C35.7637 48.9702 36.1062 48.9368 36.4174 48.8091C36.7286 48.6813 36.9946 48.465 37.1817 48.1875C37.3689 47.91 37.4688 47.5838 37.4688 47.25C37.4688 46.8025 37.2893 46.3732 36.9699 46.0568C36.6505 45.7403 36.2173 45.5625 35.7656 45.5625Z" fill="black"/>
<path d="M61.3125 104.625C60.302 104.625 59.3141 104.328 58.4739 103.772C57.6337 103.216 56.9788 102.425 56.5921 101.5C56.2053 100.575 56.1042 99.5569 56.3013 98.5749C56.4984 97.5928 56.9851 96.6908 57.6996 95.9828C58.4142 95.2748 59.3246 94.7926 60.3157 94.5973C61.3068 94.4019 62.3342 94.5022 63.2678 94.8854C64.2014 95.2685 64.9994 95.9174 65.5608 96.7499C66.1222 97.5825 66.4219 98.5612 66.4219 99.5625C66.4219 100.905 65.8836 102.193 64.9254 103.142C63.9672 104.092 62.6676 104.625 61.3125 104.625ZM61.3125 97.875C60.9757 97.875 60.6464 97.974 60.3663 98.1594C60.0862 98.3448 59.8679 98.6084 59.739 98.9167C59.6101 99.2251 59.5764 99.5644 59.6421 99.8917C59.7078 100.219 59.87 100.52 60.1082 100.756C60.3464 100.992 60.6499 101.152 60.9802 101.218C61.3106 101.283 61.6531 101.249 61.9643 101.122C62.2755 100.994 62.5415 100.778 62.7286 100.5C62.9157 100.223 63.0156 99.8963 63.0156 99.5625C63.0156 99.1149 62.8362 98.6857 62.5168 98.3693C62.1974 98.0528 61.7642 97.875 61.3125 97.875Z" fill="black"/>
<path d="M61.3125 47.25C59.9651 47.25 58.648 46.8541 57.5277 46.1124C56.4074 45.3707 55.5342 44.3165 55.0186 43.0831C54.503 41.8497 54.368 40.4925 54.6309 39.1831C54.8938 37.8738 55.5426 36.671 56.4953 35.727C57.4481 34.783 58.662 34.1402 59.9835 33.8797C61.3049 33.6193 62.6747 33.7529 63.9195 34.2638C65.1644 34.7747 66.2283 35.6399 66.9769 36.7499C67.7255 37.8599 68.125 39.165 68.125 40.5C68.125 42.2902 67.4073 44.0071 66.1297 45.273C64.8521 46.5388 63.1193 47.25 61.3125 47.25ZM61.3125 37.125C60.6388 37.125 59.9802 37.3229 59.4201 37.6938C58.8599 38.0646 58.4233 38.5917 58.1655 39.2084C57.9077 39.8251 57.8403 40.5037 57.9717 41.1584C58.1031 41.8131 58.4275 42.4145 58.9039 42.8865C59.3803 43.3585 59.9872 43.6799 60.648 43.8102C61.3087 43.9404 61.9936 43.8735 62.616 43.6181C63.2384 43.3627 63.7704 42.9301 64.1447 42.3751C64.519 41.82 64.7188 41.1675 64.7188 40.5C64.7188 39.6049 64.3599 38.7465 63.7211 38.1135C63.0823 37.4806 62.2159 37.125 61.3125 37.125Z" fill="black"/>
</svg>
