<svg width="109" height="111" viewBox="0 0 109 111" fill="none" xmlns="http://www.w3.org/2000/svg">
<g clip-path="url(#clip0_3_7790)">
<path d="M107.297 109.266L73.3553 74.481H86.5545L60.1561 44.0445H73.3553L54.5 18.9915L35.6447 44.0445H48.8439L22.4455 74.481H35.6447L1.70312 109.266H107.297Z" fill="#8FB274"/>
<path d="M54.5 1.73438L57.8211 8.58516L65.245 9.68475L59.8717 15.0162L61.1405 22.5469L54.5 18.9914L47.8595 22.5469L49.1283 15.0162L43.755 9.68475L51.1789 8.58516L54.5 1.73438Z" fill="#FF6C6C"/>
<path d="M108.504 108.052L77.4496 76.2154H86.5545C86.8823 76.2152 87.2031 76.1187 87.4784 75.9375C87.7536 75.7562 87.9717 75.498 88.1064 75.1936C88.2411 74.8893 88.2866 74.5518 88.2376 74.2218C88.1886 73.8917 88.0472 73.5831 87.8302 73.3329L63.9336 45.7875H73.3553C73.6733 45.7878 73.9851 45.6974 74.2553 45.5265C74.5255 45.3556 74.7433 45.1111 74.884 44.8207C75.0247 44.5302 75.0828 44.2054 75.0516 43.8831C75.0204 43.5608 74.9013 43.2538 74.7076 42.9969L60.5291 24.1512C60.8087 24.265 61.1131 24.3007 61.4108 24.2544C61.7084 24.2082 61.9886 24.0818 62.2222 23.8883C62.4558 23.6948 62.6344 23.4413 62.7394 23.1539C62.8445 22.8665 62.8722 22.5558 62.8198 22.2538L61.7025 15.6215L66.4338 10.9266C66.6586 10.7002 66.817 10.4146 66.8915 10.1018C66.9659 9.78893 66.9534 9.46114 66.8553 9.15513C66.7572 8.84911 66.5774 8.57693 66.336 8.36907C66.0946 8.1612 65.8012 8.02585 65.4886 7.97815L58.9503 7.00864L56.0328 0.967812C55.8767 0.696943 55.6537 0.472344 55.386 0.316285C55.1183 0.160225 54.8153 0.078125 54.5068 0.078125C54.1984 0.078125 53.8953 0.160225 53.6276 0.316285C53.3599 0.472344 53.137 0.696943 52.9808 0.967812L50.0497 6.99997L43.5114 7.97815C43.1988 8.02585 42.9054 8.1612 42.664 8.36907C42.4226 8.57693 42.2428 8.84911 42.1447 9.15513C42.0466 9.46114 42.0341 9.78893 42.1085 10.1018C42.183 10.4146 42.3414 10.7002 42.5662 10.9266L47.2975 15.6215L46.1802 22.2538C46.1269 22.5731 46.1625 22.9012 46.2829 23.201C46.4033 23.5008 46.6037 23.7603 46.8615 23.95C47.0924 24.1197 47.3619 24.2267 47.6447 24.261C47.9275 24.2953 48.2142 24.2557 48.4778 24.146L34.2924 42.99C34.0987 43.2469 33.9795 43.5539 33.9484 43.8762C33.9172 44.1985 33.9753 44.5233 34.116 44.8137C34.2567 45.1042 34.4745 45.3487 34.7447 45.5196C35.0149 45.6904 35.3267 45.7809 35.6447 45.7806H45.0664L21.1698 73.3329C20.9528 73.5831 20.8113 73.8917 20.7624 74.2218C20.7134 74.5518 20.7589 74.8893 20.8936 75.1936C21.0283 75.498 21.2464 75.7562 21.5216 75.9375C21.7969 76.1187 22.1177 76.2152 22.4455 76.2154H31.5504L0.495609 108.052C0.261346 108.295 0.102683 108.603 0.0394323 108.938C-0.023818 109.273 0.0111485 109.619 0.139965 109.933C0.268782 110.248 0.485739 110.517 0.763742 110.706C1.04175 110.896 1.36847 110.998 1.70312 111H107.297C107.632 110.998 107.958 110.896 108.236 110.706C108.514 110.517 108.731 110.248 108.86 109.933C108.989 109.619 109.024 109.273 108.961 108.938C108.897 108.603 108.739 108.295 108.504 108.052ZM47.4167 10.8954L51.4242 10.3005C51.6976 10.2613 51.9574 10.1544 52.181 9.98936C52.4045 9.82429 52.585 9.60598 52.7066 9.35351L54.5 5.65409L56.2934 9.35351C56.415 9.60598 56.5955 9.82429 56.819 9.98936C57.0426 10.1544 57.3024 10.2613 57.5758 10.3005L61.5833 10.8954L58.688 13.7744C58.4905 13.9708 58.3428 14.2131 58.2576 14.4805C58.1725 14.7479 58.1524 15.0323 58.1992 15.3094L58.8804 19.3765L55.2937 17.4565C55.0494 17.3259 54.7776 17.2576 54.5017 17.2576C54.2258 17.2576 53.954 17.3259 53.7098 17.4565L50.123 19.3765L50.8042 15.3094C50.851 15.0323 50.8309 14.7479 50.7458 14.4805C50.6606 14.2131 50.5129 13.9708 50.3154 13.7744L47.4167 10.8954ZM50.3955 43.3282C50.2605 43.0243 50.0424 42.7664 49.7672 42.5855C49.492 42.4047 49.1715 42.3084 48.8439 42.3084H39.0952L54.5 21.8427L69.9048 42.3084H60.1561C59.8283 42.3085 59.5075 42.405 59.2322 42.5863C58.9569 42.7675 58.7389 43.0258 58.6042 43.3302C58.4695 43.6345 58.4239 43.9719 58.4729 44.302C58.5219 44.6321 58.6634 44.9407 58.8804 45.1909L64.7528 51.955C61.9428 54.0887 58.7028 55.5608 55.2664 56.2649C53.2153 56.7815 51.1118 57.0516 48.9989 57.0696C46.531 57.0201 44.0807 56.6351 41.7129 55.9249L41.2156 55.7966L40.9687 55.7342L50.1196 45.1857C50.3352 44.9361 50.4759 44.6286 50.5248 44.2999C50.5737 43.9712 50.5288 43.6351 50.3955 43.3317V43.3282ZM26.2281 72.7467L38.414 58.6982C39.068 58.8387 39.7186 58.9965 40.3896 59.1682L40.9755 59.3191C43.5868 60.09 46.2873 60.503 49.0057 60.5471C51.3805 60.5289 53.7451 60.2285 56.0515 59.6521C60.037 58.8203 63.7868 57.0832 67.0214 54.5704L82.7719 72.7467H73.3553C73.0206 72.7484 72.6939 72.8505 72.4159 73.0402C72.1379 73.2299 71.921 73.4989 71.7921 73.8134C71.6633 74.1279 71.6284 74.4742 71.6916 74.8088C71.7549 75.1435 71.9135 75.4517 72.1478 75.6951L75.5813 79.2141C74.246 79.0268 72.72 78.8673 70.9266 78.7701C66.5613 78.4429 62.1724 78.7838 57.9062 79.7813C53.6377 80.7669 49.2499 81.1065 44.8842 80.789C41.1101 80.6453 37.3708 79.9998 33.761 78.869L36.8505 75.702C37.0848 75.4587 37.2434 75.1504 37.3067 74.8157C37.3699 74.4811 37.335 74.1349 37.2062 73.8203C37.0773 73.5058 36.8604 73.2369 36.5824 73.0472C36.3044 72.8574 35.9776 72.7553 35.643 72.7536L26.2281 72.7467ZM5.79062 107.531L31.0582 81.6405L31.1161 81.6596C35.4933 83.2044 40.071 84.0811 44.7002 84.2612C45.9929 84.3305 47.1646 84.3635 48.2427 84.3635C51.7239 84.3699 55.1944 83.973 58.5875 83.1806C62.5693 82.2514 66.6653 81.9345 70.7393 82.2406C73.8434 82.3524 76.9241 82.832 79.9191 83.6697L86.6976 90.6072C85.766 90.661 84.8701 90.6974 83.993 90.7321L83.4003 90.7564C77.5406 90.8753 71.7129 91.6689 66.0285 93.1221C60.269 94.3861 54.6695 96.3132 49.3378 98.8663C44.0255 101.396 38.4532 103.315 32.7238 104.59C27.0327 106.033 21.2018 106.828 15.3383 106.961C12.9403 107.044 10.4589 107.134 7.32003 107.531H5.79062ZM35.299 107.531C40.6446 106.232 45.8457 104.379 50.8213 102.002C55.928 99.5595 61.291 97.7161 66.8068 96.5076C72.2969 95.1056 77.9252 94.3405 83.5843 94.2269L84.1225 94.2043C85.8869 94.1367 87.7229 94.0552 89.8467 93.8471L103.209 107.531H35.299Z" fill="black"/>
<g opacity="0.1">
<path d="M83.3101 109.266C69.6367 100.886 59.5557 87.5793 55.0671 71.9843C50.5784 56.3893 52.0101 39.6459 59.078 25.0756L54.5 18.9915L35.6447 44.0532H48.8439L22.4455 74.4897H35.6447L1.70312 109.266H83.3101Z" fill="black"/>
</g>
</g>
<defs>
<clipPath id="clip0_3_7790">
<rect width="109" height="111" fill="white"/>
</clipPath>
</defs>
</svg>
